<svg width="108" height="50" viewBox="0 0 108 50" fill="none" xmlns="http://www.w3.org/2000/svg">
<g filter="url(#filter0_ddi_82_8)">
<path d="M10.92 22V12.448L12.568 10.8H17.736L19.384 12.448V22H17.128V18.704H13.176V22H10.92ZM12.048 20.864H12.04V17.608H18.296V20.864H18.288V12.92L17.288 11.928H13.048L12.048 12.92V20.864ZM13.176 16.448H17.128V13.552L16.64 13.064H13.664L13.176 13.552V16.448ZM12.04 17.616V12.92L13.048 11.92H17.288L18.296 12.92V17.616H12.04ZM22.5449 20.864H26.9769H22.5449V19.232L26.6329 16.208V14.48H22.3689H26.6329V16.208L22.5449 19.232V20.864ZM21.1769 22V18.808L25.2969 15.864V15.624H21.3289V13.36H27.9769V16.616L23.9129 19.48V19.736H27.9769V22H21.1769ZM31.3874 22L29.7394 20.352V13.36H32.0034V19.248L32.4914 19.736H34.8434L35.3314 19.248V13.36H37.5954V20.352L35.9474 22H31.3874ZM32.0274 20.864H35.3634L36.4754 19.664V14.48V19.664L35.3634 20.864H32.0274L30.8594 19.656V14.48V19.656L32.0274 20.864ZM39.4288 22V19.736H44.4688L44.9568 19.248V19.288L44.4848 18.808H40.9968L39.3488 17.16V15.008L40.9968 13.36H47.0528V15.624H42.0928L41.6048 16.112V16.064L42.0928 16.552H45.5648L47.2128 18.2V20.352L45.5648 22H39.4288ZM40.6608 20.84H45.0928L46.0848 19.848V18.592L45.0928 17.64H41.3968L40.4928 16.728V15.472L41.4768 14.488H45.8208H41.4768L40.4928 15.472V16.728L41.3968 17.64H45.0928L46.0848 18.592V19.848L45.0928 20.84H40.6608ZM50.6218 22L48.9738 20.352V18.072L50.6218 16.424H54.9738V16.112L54.4858 15.624H49.0858V13.36H55.5898L57.2378 15.008V20.352L55.5898 22H50.6218ZM51.2058 20.896L50.1818 19.888V18.4L51.0298 17.552H56.1258V19.808L55.0218 20.896H51.2058ZM51.2058 20.896H55.0218L56.1258 19.808V15.552L55.0858 14.528H50.0858H55.0858L56.1258 15.552V17.552H51.0298L50.1818 18.4V19.888L51.2058 20.896ZM51.7258 19.736H54.4858L54.9738 19.248V18.608H51.5658L51.2298 18.944V19.248L51.7258 19.736ZM12.128 38.864H12.12V29.928H14.448L17.28 38.864H19.584V29.928H19.592V38.864H17.28L14.448 29.928H12.128V38.864ZM11 40V28.8H15.344L18.112 37.704H18.456V28.8H20.72V40H16.376L13.592 31.072H13.264V40H11ZM24.2468 40L22.5988 38.352V36.072L24.2468 34.424H28.5988V34.112L28.1108 33.624H22.7108V31.36H29.2148L30.8628 33.008V38.352L29.2148 40H24.2468ZM24.8308 38.896L23.8068 37.888V36.4L24.6548 35.552H29.7508V37.808L28.6468 38.896H24.8308ZM24.8308 38.896H28.6468L29.7508 37.808V33.552L28.7108 32.528H23.7108H28.7108L29.7508 33.552V35.552H24.6548L23.8068 36.4V37.888L24.8308 38.896ZM25.3508 37.736H28.1108L28.5988 37.248V36.608H25.1908L24.8548 36.944V37.248L25.3508 37.736ZM32.75 40V28.8H35.014V34.576H36.646L37.598 33.624V31.36H39.862V34.576L38.734 35.696L39.862 36.84V40H37.598V37.784L36.646 36.84H35.014V40H32.75ZM33.894 38.864H33.886V35.688H37.214L38.71 37.248V38.864H38.702V37.248L37.214 35.688L38.71 34.192V32.48H38.718V34.192L37.214 35.688H33.886V29.928H33.894V38.864ZM43.3874 40L41.7394 38.352V36.072L43.3874 34.424H47.7394V34.112L47.2514 33.624H41.8514V31.36H48.3554L50.0034 33.008V38.352L48.3554 40H43.3874ZM43.9714 38.896L42.9474 37.888V36.4L43.7954 35.552H48.8914V37.808L47.7874 38.896H43.9714ZM43.9714 38.896H47.7874L48.8914 37.808V33.552L47.8514 32.528H42.8514H47.8514L48.8914 33.552V35.552H43.7954L42.9474 36.4V37.888L43.9714 38.896ZM44.4914 37.736H47.2514L47.7394 37.248V36.608H44.3314L43.9954 36.944V37.248L44.4914 37.736ZM51.8906 40V28.008H54.1546V31.512L54.3066 31.36H58.0426L59.6906 33.008V40H57.4266V34.112L56.9386 33.616H54.7946L54.1546 34.264V40H51.8906ZM53.0666 38.864H53.0586V33.84L54.4426 32.472H57.5866L58.5626 33.432V38.864H58.5546V33.432L57.5866 32.472H54.4426L53.0586 33.84V29.232H53.0666V38.864ZM63.1061 40L61.4581 38.352V36.072L63.1061 34.424H67.4581V34.112L66.9701 33.624H61.5701V31.36H68.0741L69.7221 33.008V38.352L68.0741 40H63.1061ZM63.6901 38.896L62.6661 37.888V36.4L63.5141 35.552H68.6101V37.808L67.5061 38.896H63.6901ZM63.6901 38.896H67.5061L68.6101 37.808V33.552L67.5701 32.528H62.5701H67.5701L68.6101 33.552V35.552H63.5141L62.6661 36.4V37.888L63.6901 38.896ZM64.2101 37.736H66.9701L67.4581 37.248V36.608H64.0501L63.7141 36.944V37.248L64.2101 37.736ZM71.5694 40V37.736H76.6094L77.0974 37.248V37.288L76.6254 36.808H73.1374L71.4894 35.16V33.008L73.1374 31.36H79.1934V33.624H74.2334L73.7454 34.112V34.064L74.2334 34.552H77.7054L79.3534 36.2V38.352L77.7054 40H71.5694ZM72.8014 38.84H77.2334L78.2254 37.848V36.592L77.2334 35.64H73.5374L72.6334 34.728V33.472L73.6174 32.488H77.9614H73.6174L72.6334 33.472V34.728L73.5374 35.64H77.2334L78.2254 36.592V37.848L77.2334 38.84H72.8014ZM81.2344 40V28.008H83.4984V31.512L83.6504 31.36H87.3864L89.0344 33.008V40H86.7704V34.112L86.2824 33.616H84.1384L83.4984 34.264V40H81.2344ZM82.4104 38.864H82.4024V33.84L83.7864 32.472H86.9304L87.9064 33.432V38.864H87.8984V33.432L86.9304 32.472H83.7864L82.4024 33.84V29.232H82.4104V38.864ZM92.6179 30.104V28H95.1939V30.104H92.6179ZM93.9139 29.184H93.9059V28.8H93.9139V29.184ZM90.8019 40V37.736H92.9379V33.624H90.8019V31.36H95.1939V37.736H97.3299V40H90.8019ZM91.8099 38.864H96.3299H94.0259V32.488H91.8099H94.0259V38.864H91.8099Z" fill="white"/>
</g>
<defs>
<filter id="filter0_ddi_82_8" x="0.919922" y="0.799988" width="106.41" height="49.2" filterUnits="userSpaceOnUse" color-interpolation-filters="sRGB">
<feFlood flood-opacity="0" result="BackgroundImageFix"/>
<feColorMatrix in="SourceAlpha" type="matrix" values="0 0 0 0 0 0 0 0 0 0 0 0 0 0 0 0 0 0 127 0" result="hardAlpha"/>
<feOffset/>
<feGaussianBlur stdDeviation="1.5"/>
<feComposite in2="hardAlpha" operator="out"/>
<feColorMatrix type="matrix" values="0 0 0 0 0.345833 0 0 0 0 0.345833 0 0 0 0 0.345833 0 0 0 0.59 0"/>
<feBlend mode="normal" in2="BackgroundImageFix" result="effect1_dropShadow_82_8"/>
<feColorMatrix in="SourceAlpha" type="matrix" values="0 0 0 0 0 0 0 0 0 0 0 0 0 0 0 0 0 0 127 0" result="hardAlpha"/>
<feOffset/>
<feGaussianBlur stdDeviation="5"/>
<feComposite in2="hardAlpha" operator="out"/>
<feColorMatrix type="matrix" values="0 0 0 0 0.85 0 0 0 0 0.85 0 0 0 0 0.85 0 0 0 1 0"/>
<feBlend mode="normal" in2="effect1_dropShadow_82_8" result="effect2_dropShadow_82_8"/>
<feBlend mode="normal" in="SourceGraphic" in2="effect2_dropShadow_82_8" result="shape"/>
<feColorMatrix in="SourceAlpha" type="matrix" values="0 0 0 0 0 0 0 0 0 0 0 0 0 0 0 0 0 0 127 0" result="hardAlpha"/>
<feOffset/>
<feGaussianBlur stdDeviation="0.5"/>
<feComposite in2="hardAlpha" operator="arithmetic" k2="-1" k3="1"/>
<feColorMatrix type="matrix" values="0 0 0 0 0.245833 0 0 0 0 0.245833 0 0 0 0 0.245833 0 0 0 1 0"/>
<feBlend mode="normal" in2="shape" result="effect3_innerShadow_82_8"/>
</filter>
</defs>
</svg>
