<svg width="531" height="260" viewBox="0 0 531 260" fill="none" xmlns="http://www.w3.org/2000/svg">
<g filter="url(#filter0_i_475_38)">
<path d="M423.384 121.437C420.004 125.583 414.446 135.457 419.254 141.786C425.265 149.696 441.155 118.787 431.231 116.301C425.177 114.978 420.686 128.269 425.493 128.622C430.301 128.975 442.935 118.478 447.53 115.739C452.125 113.001 441.824 127.624 446.471 130.162C451.118 132.7 460.609 117.139 461.644 115.018C462.678 112.897 458.965 127.564 462.931 127.415C466.896 127.267 476.258 113.454 478.861 107.933C481.463 102.412 472.353 130.743 483.259 125.832" stroke="#71FFF6" stroke-width="7" stroke-linecap="round"/>
<path d="M527.056 49.9546C521.759 60.2579 510.12 85.5331 505.937 104.208" stroke="#71FFF6" stroke-width="7" stroke-linecap="round"/>
<path d="M501.19 120.996C500.522 122.119 499.823 124.059 502.373 122.841" stroke="#71FFF6" stroke-width="7" stroke-linecap="round"/>
<path d="M365.783 151.922C369.129 144.258 378.269 127.88 388.068 123.678C400.318 118.426 378.373 148.012 386.144 149.901C393.914 151.789 403.81 136.697 406.649 121.966" stroke="#71FFF6" stroke-width="7" stroke-linecap="round"/>
<path d="M406.649 121.966C402.61 133.094 394.397 157.186 393.858 164.528C393.184 173.706 388.926 195.802 382.423 200.598C375.919 205.393 365.382 181.332 417.486 135.944" stroke="#71FFF6" stroke-width="7" stroke-linecap="round"/>
</g>
<g filter="url(#filter1_i_475_38)">
<path d="M203.628 194.066C206.452 197.496 217.563 192.189 239.414 143.525C244.117 133.325 249.482 120.098 241.595 113.807C233.708 107.515 231.719 134.612 228.436 185.341C227.666 195.83 222.385 213.897 216.186 238.488C215.801 243.733 222.942 248.211 233.48 224.378C244.017 200.546 221.792 198.035 222.421 195.445C223.051 192.855 247.184 193.308 254.462 160.009" stroke="#71FFF6" stroke-width="7" stroke-linecap="round"/>
<path d="M253.299 163.878C259.436 160.081 269.501 158.652 260.66 183.313C260.147 190.305 265.167 193.749 279.04 172.358" stroke="#71FFF6" stroke-width="7" stroke-linecap="round"/>
<path d="M285.813 157.916C282.771 159.45 277.599 165.661 281.246 178.232C283.952 183.264 308.495 166.171 294.096 152.812C290.857 149.059 286.069 154.419 285.941 156.168C285.813 157.916 290.788 167.948 303.198 160.51C306.045 157.643 311.217 147.038 315.459 149.107C319.701 151.176 310.68 166.332 312.043 171.705C313.663 173.581 325.183 142.351 330.203 145.795C332.163 149.015 326.67 163.99 328.727 165.899C330.784 167.808 334.445 147.864 343.314 146.757C347.684 147.078 337.544 159.516 342.095 163.365C345.736 166.444 350.655 160.478 352.66 157.11" stroke="#71FFF6" stroke-width="7" stroke-linecap="round"/>
</g>
<g filter="url(#filter2_i_475_38)">
<path d="M346.468 34.7229C343.985 37.4982 339.545 45.5907 341.648 55.7573C343.839 60.5777 355.671 52.2516 356.548 50.4987C357.424 48.7459 364.874 41.2961 354.356 27.7114C350.412 24.6438 349.098 29.026 348.66 30.7789C348.221 32.5318 346.469 40.858 350.412 41.7345C353.568 42.4356 360.199 36.1837 363.121 32.9701C367.503 28.1497 377.144 19.736 380.65 24.6439" stroke="#71FFF6" stroke-width="7" stroke-linecap="round"/>
<path d="M301.77 67.151C308.489 61.4542 321.84 45.4154 321.49 26.835" stroke="#71FFF6" stroke-width="7" stroke-linecap="round"/>
<path d="M321.928 26.835C319.883 37.3522 317.283 58.7373 323.243 60.1396C326.31 62.3306 333.322 57.9485 336.389 53.1281" stroke="#71FFF6" stroke-width="7" stroke-linecap="round"/>
<path d="M305.714 41.2963C309.804 40.566 320.088 37.7029 328.502 32.0938" stroke="#71FFF6" stroke-width="7" stroke-linecap="round"/>
</g>
<g filter="url(#filter3_i_475_38)">
<path d="M136.562 109.22C152.337 96.95 176.001 55.7575 181.26 31.2173C182.937 23.3919 183.21 11.7538 181.26 4.0478C180.193 3.4551 175.878 8.4299 172.057 15.8795C163.293 32.97 153.078 83.2399 171.619 98.2647C176.527 100.368 184.766 89.7924 188.271 84.2417" stroke="#FF3DB1" stroke-width="7" stroke-linecap="round"/>
<path d="M198.35 64.5219C195.575 66.1287 189.937 71.884 189.586 82.0507C189.586 85.1182 189.586 90.815 191.777 92.5679C193.53 93.9702 196.89 93.1522 198.35 92.5679C200.103 91.8375 204.135 89.1498 206.238 84.2418C208.868 78.1067 209.306 69.3423 208.429 67.5895C207.553 65.8366 205.362 63.2073 202.732 63.2073C200.103 63.2073 193.092 69.3423 195.721 70.657C198.35 71.9716 198.35 78.5449 208.429 80.2978C216.317 74.1627 213.25 70.2188 222.891 63.2073" stroke="#FF3DB1" stroke-width="7" stroke-linecap="round"/>
<path d="M223.767 62.7689C223.182 71.0951 222.803 87.7474 225.958 87.7474C229.902 87.7474 240.857 74.6008 242.172 58.825" stroke="#FF3DB1" stroke-width="7" stroke-linecap="round"/>
<path d="M242.172 58.8251C241.734 66.8591 242.347 82.6642 248.307 81.6124C255.757 80.2978 260.139 71.9716 262.33 68.9041C264.521 65.8366 271.095 54.4429 267.151 45.6785C265.252 43.9257 261.103 43.4874 259.701 55.7576C257.948 71.0952 260.469 74.9852 264.083 76.792C269.342 79.4213 276.791 77.2303 289.5 58.8251" stroke="#FF3DB1" stroke-width="7" stroke-linecap="round"/>
</g>
<g filter="url(#filter4_i_475_38)">
<path d="M33.4419 207.939C42.9512 204.096 64.5192 189.217 74.7164 160.438C77.479 152.731 73.9626 146.761 71.3082 147.006C68.6539 147.25 63.4415 146.428 61.6131 171.34C59.7847 196.251 55.4824 224.936 55.9676 248.259C57.1905 261.531 59.6644 209.864 78.0523 210.774C82.0498 210.188 74.7845 237.337 81.1597 234.29C83.3449 234.45 94.4955 232.193 103.689 208.701C104.82 205.269 104.427 198.649 102.146 199.8C99.8643 200.95 89.7041 207.674 99.4112 225.084C100.999 227.398 108.525 226.632 113.473 219.086C118.421 211.54 121.171 209.984 122.919 210.112C124.668 210.241 119.363 192.715 137.005 191.813" stroke="#71FFF6" stroke-width="7" stroke-linecap="round"/>
<path d="M123.324 210.582C123.249 211.601 123.379 214.628 124.495 218.577C125.89 223.512 138.312 209.924 140.096 191.6" stroke="#71FFF6" stroke-width="7" stroke-linecap="round"/>
<path d="M140.032 192.474C137.831 200.515 134.933 216.443 140.954 215.83C148.48 215.064 157.75 184.547 162.602 178.312" stroke="#71FFF6" stroke-width="7" stroke-linecap="round"/>
<path d="M159.595 183.364C164.709 181.543 173.528 182.717 167.895 201.989C167.735 204.174 167.201 205.453 170.73 205.273C173.553 205.128 174.969 203.387 175.325 202.534C178.098 194.682 185.303 180.33 191.936 185.738" stroke="#71FFF6" stroke-width="7" stroke-linecap="round"/>
</g>
<g filter="url(#filter5_i_475_38)">
<path d="M81.7842 41.2963C83.6831 38.6669 87.3933 32.3566 87.0428 28.1497C86.6046 22.8911 83.537 22.0146 81.7842 22.4529C80.0313 22.8911 77.8402 25.5205 78.7166 26.8351C79.5931 28.1497 80.9076 28.588 82.2223 28.588C83.274 28.588 83.2448 26.543 83.0987 25.5204" stroke="#71FFF6" stroke-width="7" stroke-linecap="round"/>
<path d="M26.5684 109.22L5.09572 117.546C3.3431 117.546 2.90463 144.891 9.91612 145.592C18.6805 146.469 42.3442 114.917 51.985 92.1296C61.6259 69.3422 64.2552 51.3753 61.6259 30.3408C58.9965 9.30633 44.5353 59.7014 42.7825 73.2862C41.0296 86.871 39.277 104.838 48.0411 131.569C49.7416 136.756 65.4237 122.805 72.1431 114.917" stroke="#71FFF6" stroke-width="7" stroke-linecap="round"/>
<path d="M95.8071 93.006C88.6495 85.7024 73.9838 79.8595 72.5815 114.917C72.5815 117.108 73.0198 121.49 75.6491 124.12C78.2784 126.749 90.1103 117.984 95.8071 93.006ZM95.8071 93.006C100.335 76.0616 109.742 39.4557 111.145 28.5879C112.898 15.0031 97.9982 82.927 98.8746 93.006C99.7511 103.085 97.9982 112.726 104.571 118.423C109.83 122.98 120.201 110.097 124.73 103.085" stroke="#71FFF6" stroke-width="7" stroke-linecap="round"/>
</g>
<defs>
<filter id="filter0_i_475_38" x="362.282" y="46.4539" width="168.274" height="158.248" filterUnits="userSpaceOnUse" color-interpolation-filters="sRGB">
<feFlood flood-opacity="0" result="BackgroundImageFix"/>
<feBlend mode="normal" in="SourceGraphic" in2="BackgroundImageFix" result="shape"/>
<feColorMatrix in="SourceAlpha" type="matrix" values="0 0 0 0 0 0 0 0 0 0 0 0 0 0 0 0 0 0 127 0" result="hardAlpha"/>
<feOffset/>
<feGaussianBlur stdDeviation="1.5"/>
<feComposite in2="hardAlpha" operator="arithmetic" k2="-1" k3="1"/>
<feColorMatrix type="matrix" values="0 0 0 0 0 0 0 0 0 0.22 0 0 0 0 1 0 0 0 1 0"/>
<feBlend mode="normal" in2="shape" result="effect1_innerShadow_475_38"/>
</filter>
<filter id="filter1_i_475_38" x="200.128" y="109.406" width="156.032" height="136.746" filterUnits="userSpaceOnUse" color-interpolation-filters="sRGB">
<feFlood flood-opacity="0" result="BackgroundImageFix"/>
<feBlend mode="normal" in="SourceGraphic" in2="BackgroundImageFix" result="shape"/>
<feColorMatrix in="SourceAlpha" type="matrix" values="0 0 0 0 0 0 0 0 0 0 0 0 0 0 0 0 0 0 127 0" result="hardAlpha"/>
<feOffset/>
<feGaussianBlur stdDeviation="1.5"/>
<feComposite in2="hardAlpha" operator="arithmetic" k2="-1" k3="1"/>
<feColorMatrix type="matrix" values="0 0 0 0 0 0 0 0 0 0.22 0 0 0 0 1 0 0 0 1 0"/>
<feBlend mode="normal" in2="shape" result="effect1_innerShadow_475_38"/>
</filter>
<filter id="filter2_i_475_38" x="298.27" y="19.6592" width="85.8799" height="50.9919" filterUnits="userSpaceOnUse" color-interpolation-filters="sRGB">
<feFlood flood-opacity="0" result="BackgroundImageFix"/>
<feBlend mode="normal" in="SourceGraphic" in2="BackgroundImageFix" result="shape"/>
<feColorMatrix in="SourceAlpha" type="matrix" values="0 0 0 0 0 0 0 0 0 0 0 0 0 0 0 0 0 0 127 0" result="hardAlpha"/>
<feOffset/>
<feGaussianBlur stdDeviation="1.5"/>
<feComposite in2="hardAlpha" operator="arithmetic" k2="-1" k3="1"/>
<feColorMatrix type="matrix" values="0 0 0 0 0 0 0 0 0 0.22 0 0 0 0 1 0 0 0 1 0"/>
<feBlend mode="normal" in2="shape" result="effect1_innerShadow_475_38"/>
</filter>
<filter id="filter3_i_475_38" x="133.062" y="0.498779" width="159.938" height="112.221" filterUnits="userSpaceOnUse" color-interpolation-filters="sRGB">
<feFlood flood-opacity="0" result="BackgroundImageFix"/>
<feBlend mode="normal" in="SourceGraphic" in2="BackgroundImageFix" result="shape"/>
<feColorMatrix in="SourceAlpha" type="matrix" values="0 0 0 0 0 0 0 0 0 0 0 0 0 0 0 0 0 0 127 0" result="hardAlpha"/>
<feOffset/>
<feGaussianBlur stdDeviation="1.5"/>
<feComposite in2="hardAlpha" operator="arithmetic" k2="-1" k3="1"/>
<feColorMatrix type="matrix" values="0 0 0 0 0.562533 0 0 0 0 0 0 0 0 0 0.135008 0 0 0 1 0"/>
<feBlend mode="normal" in2="shape" result="effect1_innerShadow_475_38"/>
</filter>
<filter id="filter4_i_475_38" x="29.9409" y="143.498" width="165.496" height="110.444" filterUnits="userSpaceOnUse" color-interpolation-filters="sRGB">
<feFlood flood-opacity="0" result="BackgroundImageFix"/>
<feBlend mode="normal" in="SourceGraphic" in2="BackgroundImageFix" result="shape"/>
<feColorMatrix in="SourceAlpha" type="matrix" values="0 0 0 0 0 0 0 0 0 0 0 0 0 0 0 0 0 0 127 0" result="hardAlpha"/>
<feOffset/>
<feGaussianBlur stdDeviation="1.5"/>
<feComposite in2="hardAlpha" operator="arithmetic" k2="-1" k3="1"/>
<feColorMatrix type="matrix" values="0 0 0 0 0 0 0 0 0 0.22 0 0 0 0 1 0 0 0 1 0"/>
<feBlend mode="normal" in2="shape" result="effect1_innerShadow_475_38"/>
</filter>
<filter id="filter5_i_475_38" x="0.5" y="18.8552" width="127.73" height="130.255" filterUnits="userSpaceOnUse" color-interpolation-filters="sRGB">
<feFlood flood-opacity="0" result="BackgroundImageFix"/>
<feBlend mode="normal" in="SourceGraphic" in2="BackgroundImageFix" result="shape"/>
<feColorMatrix in="SourceAlpha" type="matrix" values="0 0 0 0 0 0 0 0 0 0 0 0 0 0 0 0 0 0 127 0" result="hardAlpha"/>
<feOffset/>
<feGaussianBlur stdDeviation="1.5"/>
<feComposite in2="hardAlpha" operator="arithmetic" k2="-1" k3="1"/>
<feColorMatrix type="matrix" values="0 0 0 0 0 0 0 0 0 0.22 0 0 0 0 1 0 0 0 1 0"/>
<feBlend mode="normal" in2="shape" result="effect1_innerShadow_475_38"/>
</filter>
</defs>
</svg>
