<svg width="340" height="239" viewBox="0 0 340 239" fill="none" xmlns="http://www.w3.org/2000/svg">
<g filter="url(#filter0_di_521_93)">
<path d="M175 42.0425C172.333 39.8758 166.7 35.2425 165.5 34.0425C164.3 32.8425 165 31.2091 165.5 30.5425" stroke="#71FFF6" stroke-width="3" stroke-linecap="round"/>
<path d="M165.5 30.5425C163.166 29.5425 158.3 27.1425 157.5 25.5425C156.7 23.9425 158.166 22.2091 159 21.5425" stroke="#71FFF6" stroke-width="3" stroke-linecap="round"/>
<path d="M159 21.5427C154.333 19.5427 144.6 14.9427 143 12.5427C141 9.54266 150.5 5.54266 156 6.04266C161.5 6.54266 168.5 7.04248 180 16.5425C189.2 24.1425 189.5 41.0425 188.5 48.5425" stroke="#71FFF6" stroke-width="3" stroke-linecap="round"/>
<path d="M188.5 48.0426C191.5 28.5426 199 23.0426 204 20.0426C209 17.0426 228.5 8.04261 232 25.0426" stroke="#71FFF6" stroke-width="3" stroke-linecap="round"/>
<path d="M232 25.0425L219 29.0425" stroke="#71FFF6" stroke-width="3" stroke-linecap="round"/>
<path d="M219 29.0425C219.667 29.7091 220.9 31.1425 220.5 31.5425C220 32.0425 212.5 35.5425 211 35.5425" stroke="#71FFF6" stroke-width="3" stroke-linecap="round"/>
<path d="M211 35.5425C212 36.0425 213.8 37.1425 213 37.5425C212 38.0425 198 48.0425 196 49.0425" stroke="#71FFF6" stroke-width="3" stroke-linecap="round"/>
<path d="M196 49.0425C201.667 47.2092 215.3 43.9425 224.5 45.5425C236 47.5425 242 50.0425 244.5 57.0425C247 64.0425 245.5 80.0425 243.5 81.0425" stroke="#71FFF6" stroke-width="3" stroke-linecap="round"/>
<path d="M243.5 81.0426C240.5 78.7093 234.4 73.8426 234 73.0426C233.5 72.0426 234 76.0426 233 76.5426" stroke="#71FFF6" stroke-width="3" stroke-linecap="round"/>
<path d="M233 76.5425C229 75.2091 220.5 71.0425 218.5 65.0425" stroke="#71FFF6" stroke-width="3" stroke-linecap="round"/>
<path d="M218.5 65.0425C218.667 66.2091 218.7 68.5425 217.5 68.5425C216 68.5425 198 55.5425 191 58.0425" stroke="#71FFF6" stroke-width="3" stroke-linecap="round"/>
<path d="M191 58.0425C198.5 59.8758 214.6 67.3425 219 82.5425C224.5 101.542 210.5 116.542 199 120.042" stroke="#71FFF6" stroke-width="3" stroke-linecap="round"/>
<path d="M199 120.042C197.667 120.042 195 118.442 195 112.042C195 105.642 196.333 99.3758 197 97.0425" stroke="#71FFF6" stroke-width="3" stroke-linecap="round"/>
<path d="M197 97.0425C196 97.5425 193.7 98.5425 192.5 98.5425C191 98.5425 191 82.5425 190.5 79.5425" stroke="#71FFF6" stroke-width="3" stroke-linecap="round"/>
<path d="M190.5 79.5425C189.833 80.2091 188.2 81.3425 187 80.5425C185.5 79.5425 188 67.5425 186 65.5425" stroke="#71FFF6" stroke-width="3" stroke-linecap="round"/>
<path d="M182 62.5425C181.334 61.2092 177.8 58.9425 169 60.5425C158 62.5425 159.5 61.5425 158 61.0425C156.8 60.6425 159.167 58.5425 160.5 57.5425" stroke="#71FFF6" stroke-width="3" stroke-linecap="round"/>
<path d="M160.5 58.0425C156 59.3758 146.5 61.7425 144.5 60.5425C142.5 59.3425 144.334 57.7091 145.5 57.0425" stroke="#71FFF6" stroke-width="3" stroke-linecap="round"/>
<path d="M145.5 57.0427C140 59.0427 127.6 62.8427 122 62.0427C115 61.0427 127.5 46.5427 138.5 40.0427C149.5 33.5427 172.5 31.5427 182.5 52.5427" stroke="#71FFF6" stroke-width="3" stroke-linecap="round"/>
<path d="M186 64.5425C179.5 69.0425 164.5 82.2425 156.5 99.0425C146.5 120.042 140.5 169.042 160 192.542" stroke="#71FFF6" stroke-width="3" stroke-linecap="round"/>
<path d="M141.5 189.042C138.333 175.542 133.3 143.842 138.5 125.042C145 101.542 158 77.5425 180.5 63.0425" stroke="#71FFF6" stroke-width="3" stroke-linecap="round"/>
<path d="M85.5 90.0425C96 94.2091 118.5 106.142 124.5 120.542C132 138.542 137.5 156.542 135 188.542" stroke="#71FFF6" stroke-width="3" stroke-linecap="round"/>
<path d="M102.5 86.5425C103.167 87.3758 104.4 89.3425 104 90.5425C103.5 92.0425 87.5 87.5425 85 90.5425" stroke="#71FFF6" stroke-width="3" stroke-linecap="round"/>
<path d="M124.5 88.5425C125 89.2091 126 90.7425 126 91.5425C126 92.5425 121.5 93.0425 102.5 86.5425" stroke="#71FFF6" stroke-width="3" stroke-linecap="round"/>
<path d="M144.5 89.5425C142.167 90.3758 134.8 91.3425 124 88.5425" stroke="#71FFF6" stroke-width="3" stroke-linecap="round"/>
<path d="M81 87.0425C85 80.5425 98.3 68.0425 119.5 70.0425C140.7 72.0425 144.667 84.2092 144 90.0425" stroke="#71FFF6" stroke-width="3" stroke-linecap="round"/>
<path d="M89.9999 68.5425C90.6666 68.8758 91.7999 69.7425 90.9999 70.5425C89.9999 71.5425 79.4999 82.5425 80.9999 87.5425" stroke="#71FFF6" stroke-width="3" stroke-linecap="round"/>
<path d="M103.5 45.5425C105.167 46.0425 108.2 47.3425 107 48.5425C105.5 50.0425 90.5 64.5425 89.5 69.0425" stroke="#71FFF6" stroke-width="3" stroke-linecap="round"/>
<path d="M115 29.5425C116.5 30.2091 119.2 32.1425 118 34.5425C116.5 37.5425 106 40.5425 104 45.0425" stroke="#71FFF6" stroke-width="3" stroke-linecap="round"/>
<path d="M65 60.0425H66.5C68 65.8758 71.6 78.1425 74 80.5425" stroke="#71FFF6" stroke-width="3" stroke-linecap="round"/>
<path d="M73.5 81.0423C72.3333 72.5423 71.2 53.7423 76 46.5423C82 37.5423 93.5 24.5423 115 29.5423" stroke="#71FFF6" stroke-width="3" stroke-linecap="round"/>
<path d="M59.5 46.5425C60.1667 46.5425 61.6 46.5425 62 46.5425C62.5 46.5425 64.5 58.0425 64.5 60.0425" stroke="#71FFF6" stroke-width="3" stroke-linecap="round"/>
<path d="M55 30.0425C56.8333 34.8758 60.3 44.9425 59.5 46.5425" stroke="#71FFF6" stroke-width="3" stroke-linecap="round"/>
<path d="M70.4998 86.0425C64.1665 83.0425 50.7998 74.7425 47.9998 65.5425C44.4998 54.0425 40.9998 40.0425 53.9998 30.0425" stroke="#71FFF6" stroke-width="3" stroke-linecap="round"/>
<path d="M36.4998 105.542C33.3331 108.876 26.5998 116.142 24.9998 118.542C22.9998 121.542 17.4998 127.542 16.4998 127.542C15.4998 127.542 6.99978 110.542 22.4998 93.5425C37.9998 76.5425 62 81.5425 71 86.0425" stroke="#71FFF6" stroke-width="3" stroke-linecap="round"/>
<path d="M55.4999 100.542L54.9999 98.0425C49.8332 101.709 38.9999 109.142 36.9999 109.542C34.9999 109.942 35.8332 107.042 36.4999 105.542" stroke="#71FFF6" stroke-width="3" stroke-linecap="round"/>
<path d="M75.5 93.0425C71.3333 94.0425 61.5 96.9425 55.5 100.542" stroke="#71FFF6" stroke-width="3" stroke-linecap="round"/>
<path d="M69.5 145.042C71.5 151.709 75 165.142 73 165.542C70.5 166.042 52 151.542 53.5 127.542C55 103.542 72.5 93.5425 75.5 93.0425" stroke="#71FFF6" stroke-width="3" stroke-linecap="round"/>
<path d="M69.5001 124.042C71.6668 131.209 75.3001 145.542 72.5001 145.542C69.7001 145.542 69.3334 144.876 69.5001 144.542" stroke="#71FFF6" stroke-width="3" stroke-linecap="round"/>
<path d="M75 111.542C75.5 116.209 75.9 125.642 73.5 126.042C71.1 126.442 69.8333 124.876 69.5 124.042" stroke="#71FFF6" stroke-width="3" stroke-linecap="round"/>
<path d="M79.5 94.5425L78.5 97.5425C78.5 101.376 78.5 109.142 78.5 109.542C78.5 110.042 78 113.042 77 113.042C76.2 113.042 75.3333 112.042 75 111.542" stroke="#71FFF6" stroke-width="3" stroke-linecap="round"/>
<path d="M120.5 190.042C122.833 180.042 126.4 155.642 122 138.042C116.5 116.042 107 103.542 79.5 94.5425" stroke="#71FFF6" stroke-width="3" stroke-linecap="round"/>
<path d="M6 233.043C20.8333 233.543 52.8 232.243 62 223.043C73.5 211.543 88 191.543 130 190.043C172 188.543 180 204.543 184.5 208.043C189 211.543 199.427 221.064 213 226.542C229 233 238 233 270.5 233" stroke="#71FFF6" stroke-width="3" stroke-linecap="round"/>
<path d="M270.5 233C294 233 342.5 233 348.5 233" stroke="#71FFF6" stroke-width="3" stroke-linecap="round"/>
</g>
<defs>
<filter id="filter0_di_521_93" x="0.5" y="0.500122" width="353.5" height="238.134" filterUnits="userSpaceOnUse" color-interpolation-filters="sRGB">
<feFlood flood-opacity="0" result="BackgroundImageFix"/>
<feColorMatrix in="SourceAlpha" type="matrix" values="0 0 0 0 0 0 0 0 0 0 0 0 0 0 0 0 0 0 127 0" result="hardAlpha"/>
<feOffset/>
<feGaussianBlur stdDeviation="2"/>
<feComposite in2="hardAlpha" operator="out"/>
<feColorMatrix type="matrix" values="0 0 0 0 0.441667 0 0 0 0 1 0 0 0 0 0.9665 0 0 0 1 0"/>
<feBlend mode="normal" in2="BackgroundImageFix" result="effect1_dropShadow_521_93"/>
<feBlend mode="normal" in="SourceGraphic" in2="effect1_dropShadow_521_93" result="shape"/>
<feColorMatrix in="SourceAlpha" type="matrix" values="0 0 0 0 0 0 0 0 0 0 0 0 0 0 0 0 0 0 127 0" result="hardAlpha"/>
<feOffset/>
<feGaussianBlur stdDeviation="0.5"/>
<feComposite in2="hardAlpha" operator="arithmetic" k2="-1" k3="1"/>
<feColorMatrix type="matrix" values="0 0 0 0 0 0 0 0 0 0.425 0 0 0 0 0.3995 0 0 0 1 0"/>
<feBlend mode="normal" in2="shape" result="effect2_innerShadow_521_93"/>
</filter>
</defs>
</svg>
