<svg width="325" height="278" viewBox="0 0 325 278" fill="none" xmlns="http://www.w3.org/2000/svg">
<g filter="url(#filter0_di_521_93)">
<path d="M192 59.0425C189.333 56.8758 183.7 52.2425 182.5 51.0425C181.3 49.8425 182 48.2091 182.5 47.5425" stroke="white" stroke-width="5" stroke-linecap="round"/>
<path d="M182.5 47.5425C180.166 46.5425 175.3 44.1425 174.5 42.5425C173.7 40.9425 175.166 39.2091 176 38.5425" stroke="white" stroke-width="5" stroke-linecap="round"/>
<path d="M176 38.5427C171.333 36.5427 161.6 31.9427 160 29.5427C158 26.5427 167.5 22.5427 173 23.0427C178.5 23.5427 185.5 24.0425 197 33.5425C206.2 41.1425 206.5 58.0425 205.5 65.5425" stroke="white" stroke-width="5" stroke-linecap="round"/>
<path d="M205.5 65.0426C208.5 45.5426 216 40.0426 221 37.0426C226 34.0426 245.5 25.0426 249 42.0426" stroke="white" stroke-width="5" stroke-linecap="round"/>
<path d="M249 42.0425L236 46.0425" stroke="white" stroke-width="5" stroke-linecap="round"/>
<path d="M236 46.0425C236.667 46.7091 237.9 48.1425 237.5 48.5425C237 49.0425 229.5 52.5425 228 52.5425" stroke="white" stroke-width="5" stroke-linecap="round"/>
<path d="M228 52.5425C229 53.0425 230.8 54.1425 230 54.5425C229 55.0425 215 65.0425 213 66.0425" stroke="white" stroke-width="5" stroke-linecap="round"/>
<path d="M213 66.0425C218.667 64.2092 232.3 60.9425 241.5 62.5425C253 64.5425 259 67.0425 261.5 74.0425C264 81.0425 262.5 97.0425 260.5 98.0425" stroke="white" stroke-width="5" stroke-linecap="round"/>
<path d="M260.5 98.0426C257.5 95.7093 251.4 90.8426 251 90.0426C250.5 89.0426 251 93.0426 250 93.5426" stroke="white" stroke-width="5" stroke-linecap="round"/>
<path d="M250 93.5425C246 92.2091 237.5 88.0425 235.5 82.0425" stroke="white" stroke-width="5" stroke-linecap="round"/>
<path d="M235.5 82.0425C235.667 83.2091 235.7 85.5425 234.5 85.5425C233 85.5425 215 72.5425 208 75.0425" stroke="white" stroke-width="5" stroke-linecap="round"/>
<path d="M208 75.0425C215.5 76.8758 231.6 84.3425 236 99.5425C241.5 118.542 227.5 133.542 216 137.042" stroke="white" stroke-width="5" stroke-linecap="round"/>
<path d="M216 137.042C214.667 137.042 212 135.442 212 129.042C212 122.642 213.333 116.376 214 114.042" stroke="white" stroke-width="5" stroke-linecap="round"/>
<path d="M214 114.042C213 114.542 210.7 115.542 209.5 115.542C208 115.542 208 99.5425 207.5 96.5425" stroke="white" stroke-width="5" stroke-linecap="round"/>
<path d="M207.5 96.5425C206.833 97.2091 205.2 98.3425 204 97.5425C202.5 96.5425 205 84.5425 203 82.5425" stroke="white" stroke-width="5" stroke-linecap="round"/>
<path d="M199 79.5425C198.334 78.2092 194.8 75.9425 186 77.5425C175 79.5425 176.5 78.5425 175 78.0425C173.8 77.6425 176.167 75.5425 177.5 74.5425" stroke="white" stroke-width="5" stroke-linecap="round"/>
<path d="M177.5 75.0425C173 76.3758 163.5 78.7425 161.5 77.5425C159.5 76.3425 161.334 74.7091 162.5 74.0425" stroke="white" stroke-width="5" stroke-linecap="round"/>
<path d="M162.5 74.0427C157 76.0427 144.6 79.8427 139 79.0427C132 78.0427 144.5 63.5427 155.5 57.0427C166.5 50.5427 189.5 48.5427 199.5 69.5427" stroke="white" stroke-width="5" stroke-linecap="round"/>
<path d="M203 81.5425C196.5 86.0425 181.5 99.2425 173.5 116.042C163.5 137.042 157.5 186.042 177 209.542" stroke="white" stroke-width="5" stroke-linecap="round"/>
<path d="M158.5 206.042C155.333 192.542 150.3 160.842 155.5 142.042C162 118.542 175 94.5425 197.5 80.0425" stroke="white" stroke-width="5" stroke-linecap="round"/>
<path d="M102.5 107.042C113 111.209 135.5 123.142 141.5 137.542C149 155.542 154.5 173.542 152 205.542" stroke="white" stroke-width="5" stroke-linecap="round"/>
<path d="M119.5 103.542C120.167 104.376 121.4 106.342 121 107.542C120.5 109.042 104.5 104.542 102 107.542" stroke="white" stroke-width="5" stroke-linecap="round"/>
<path d="M141.5 105.542C142 106.209 143 107.742 143 108.542C143 109.542 138.5 110.042 119.5 103.542" stroke="white" stroke-width="5" stroke-linecap="round"/>
<path d="M161.5 106.542C159.167 107.376 151.8 108.342 141 105.542" stroke="white" stroke-width="5" stroke-linecap="round"/>
<path d="M98 104.043C102 97.5425 115.3 85.0425 136.5 87.0425C157.7 89.0425 161.667 101.209 161 107.042" stroke="white" stroke-width="5" stroke-linecap="round"/>
<path d="M107 85.5425C107.667 85.8758 108.8 86.7425 108 87.5425C107 88.5425 96.4999 99.5425 97.9999 104.542" stroke="white" stroke-width="5" stroke-linecap="round"/>
<path d="M120.5 62.5425C122.167 63.0425 125.2 64.3425 124 65.5425C122.5 67.0425 107.5 81.5425 106.5 86.0425" stroke="white" stroke-width="5" stroke-linecap="round"/>
<path d="M132 46.5425C133.5 47.2091 136.2 49.1425 135 51.5425C133.5 54.5425 123 57.5425 121 62.0425" stroke="white" stroke-width="5" stroke-linecap="round"/>
<path d="M82 77.0425H83.5C85 82.8758 88.6 95.1425 91 97.5425" stroke="white" stroke-width="5" stroke-linecap="round"/>
<path d="M90.5 98.0423C89.3333 89.5423 88.2 70.7423 93 63.5423C99 54.5423 110.5 41.5423 132 46.5423" stroke="white" stroke-width="5" stroke-linecap="round"/>
<path d="M76.5 63.5425C77.1667 63.5425 78.6 63.5425 79 63.5425C79.5 63.5425 81.5 75.0425 81.5 77.0425" stroke="white" stroke-width="5" stroke-linecap="round"/>
<path d="M72 47.0425C73.8333 51.8758 77.3 61.9425 76.5 63.5425" stroke="white" stroke-width="5" stroke-linecap="round"/>
<path d="M87.4998 103.042C81.1665 100.042 67.7998 91.7425 64.9998 82.5425C61.4998 71.0425 57.9998 57.0425 70.9998 47.0425" stroke="white" stroke-width="5" stroke-linecap="round"/>
<path d="M53.4998 122.542C50.3331 125.876 43.5998 133.142 41.9998 135.542C39.9998 138.542 34.4998 144.542 33.4998 144.542C32.4998 144.542 23.9998 127.542 39.4998 110.542C54.9998 93.5425 79 98.5425 88 103.042" stroke="white" stroke-width="5" stroke-linecap="round"/>
<path d="M72.4999 117.542L71.9999 115.042C66.8332 118.709 55.9999 126.142 53.9999 126.542C51.9999 126.942 52.8332 124.042 53.4999 122.542" stroke="white" stroke-width="5" stroke-linecap="round"/>
<path d="M92.5 110.042C88.3333 111.042 78.5 113.942 72.5 117.542" stroke="white" stroke-width="5" stroke-linecap="round"/>
<path d="M86.5 162.042C88.5 168.709 92 182.142 90 182.542C87.5 183.042 69 168.542 70.5 144.542C72 120.542 89.5 110.542 92.5 110.042" stroke="white" stroke-width="5" stroke-linecap="round"/>
<path d="M86.5001 141.042C88.6668 148.209 92.3001 162.542 89.5001 162.542C86.7001 162.542 86.3334 161.876 86.5001 161.542" stroke="white" stroke-width="5" stroke-linecap="round"/>
<path d="M92 128.542C92.5 133.209 92.9 142.642 90.5 143.042C88.1 143.442 86.8333 141.876 86.5 141.042" stroke="white" stroke-width="5" stroke-linecap="round"/>
<path d="M96.5 111.542L95.5 114.542C95.5 118.376 95.5 126.142 95.5 126.542C95.5 127.042 95 130.042 94 130.042C93.2 130.042 92.3333 129.042 92 128.542" stroke="white" stroke-width="5" stroke-linecap="round"/>
<path d="M137.5 207.042C139.833 197.042 143.4 172.642 139 155.042C133.5 133.042 124 120.542 96.5 111.542" stroke="white" stroke-width="5" stroke-linecap="round"/>
<path d="M23 250.043C37.8333 250.543 76.3 249.7 85.5 240.5C97 229 110 210.5 154.5 208C167.833 207.333 199 210.9 217 230.5C239.5 255 253 253.5 302.5 255" stroke="white" stroke-width="5" stroke-linecap="round"/>
</g>
<defs>
<filter id="filter0_di_521_93" x="0.5" y="0.500244" width="324.5" height="277" filterUnits="userSpaceOnUse" color-interpolation-filters="sRGB">
<feFlood flood-opacity="0" result="BackgroundImageFix"/>
<feColorMatrix in="SourceAlpha" type="matrix" values="0 0 0 0 0 0 0 0 0 0 0 0 0 0 0 0 0 0 127 0" result="hardAlpha"/>
<feOffset/>
<feGaussianBlur stdDeviation="10"/>
<feComposite in2="hardAlpha" operator="out"/>
<feColorMatrix type="matrix" values="0 0 0 0 1 0 0 0 0 0.888667 0 0 0 0 0.304167 0 0 0 1 0"/>
<feBlend mode="normal" in2="BackgroundImageFix" result="effect1_dropShadow_521_93"/>
<feBlend mode="normal" in="SourceGraphic" in2="effect1_dropShadow_521_93" result="shape"/>
<feColorMatrix in="SourceAlpha" type="matrix" values="0 0 0 0 0 0 0 0 0 0 0 0 0 0 0 0 0 0 127 0" result="hardAlpha"/>
<feOffset/>
<feGaussianBlur stdDeviation="1"/>
<feComposite in2="hardAlpha" operator="arithmetic" k2="-1" k3="1"/>
<feColorMatrix type="matrix" values="0 0 0 0 1 0 0 0 0 0.419608 0 0 0 0 0 0 0 0 1 0"/>
<feBlend mode="normal" in2="shape" result="effect2_innerShadow_521_93"/>
</filter>
</defs>
</svg>
