<svg width="823" height="1060" viewBox="0 0 823 1060" fill="none" xmlns="http://www.w3.org/2000/svg">
<g clip-path="url(#clip0_485_232)">
<path d="M822.11 581.425C821.441 580.629 820.064 563.911 819.186 544.286C818.196 524.529 814.578 496.797 811.016 482.595C803.891 454.19 807.232 376.038 818.459 311.85C825.238 271.988 825.127 271.856 808.794 291.462C796.833 306.039 796.615 307.126 788.795 407.143C780.323 516.078 772.314 558.783 750.452 609.508C733.645 648.745 731.597 646.846 742.238 602.156C749.958 569.875 753.673 545.485 767.652 438.258C771.245 411.029 777.213 373.433 780.929 354.698C788.865 315.675 788.844 315.919 772.394 334.04C761.398 345.995 759.271 352.081 753.096 387.815C725.496 548.572 724.865 551.591 705.114 597.827C675.282 668.146 645.664 720.411 661.823 674.478C695.89 576.617 707.731 537.932 715.731 498.176C720.64 472.783 730.586 431.844 737.671 406.885C744.622 382.038 749.951 361.723 749.463 361.68C735.132 361.051 720.24 396.643 702.389 473.412C679.654 571.027 674.118 589.481 651.365 639.145C620.349 707.517 590.868 755.367 611.573 703.804C636.494 641.911 658.502 578.167 677.114 513.882C688.663 474.311 701.268 432.496 705.346 420.924L712.447 400.024L699.328 413.762C687.313 426.121 683.845 434.918 664.421 501.469C637.844 592.357 591.808 692.13 548.89 751.724C543.135 759.953 580.117 675.255 596.135 643.695C612.418 611.912 629.856 569.656 643.246 530.122C650.018 510.177 660.524 481.213 666.384 466.107L677.251 438.649L666.795 447.208C658.44 454.229 649.492 473.739 620.806 547.846C575.219 665.117 526.763 764.434 515.536 763.459C514.204 763.221 519.752 753.129 527.953 740.808C536.153 728.487 542.003 716.331 541.239 713.806C540.342 711.392 545.581 696.355 552.725 680.623C602.761 571.607 647.299 463.59 639.475 470.165C634.303 474.511 620.417 501.338 603.254 540.421C577.171 600.123 551.515 644.986 473.395 768.777C457 794.772 454.686 793.095 468.901 765.313C475.26 752.956 487.029 729.264 495.102 712.752C503.307 696.129 522.375 662.006 537.598 636.77C587.542 554.303 621.205 488.005 608.336 497.461C600.463 503.171 590.698 517.938 572.691 551.17C548.346 596.515 478.456 699.136 447.133 735.637C433.998 750.973 424.727 767.135 412.667 795.596C412.051 797.018 410.566 797.135 409.34 795.676C404.325 789.708 466.575 684.457 516.966 613.832C530.795 594.746 550.617 566.098 561.332 550.307L580.931 521.394L551.704 528.078C535.772 531.736 498.283 535.859 468.392 537.445C438.633 538.919 389.361 541.405 359.226 542.97C329.091 544.534 289.804 548.132 271.961 551.133C254.119 554.133 239.619 555.457 239.725 554.236C240.08 548.735 371.786 522.913 395.587 523.503C401.222 523.746 407.827 522.721 410.15 521.447C418.803 516.666 376.115 518.37 314.55 525.076C279.789 528.944 251.431 531.277 251.516 530.301C251.706 528.105 365.215 505.129 395.695 501.013C433.003 496.136 493.252 493.251 537.326 494.003C596.859 495.113 605.417 494.257 614.833 486.345C622.923 479.547 621.724 479.197 587.397 480.89C567.395 481.859 516.191 478.275 472.276 472.865C424.7 467.138 378.488 464.11 356.248 465.376C311.167 467.734 303.93 466.122 334.181 460.387C388.965 449.651 416.378 449.694 523.881 460.5L632.87 471.19L645.866 460.269L658.996 449.236L638.517 452.869C604.541 459.018 476.701 443.127 417.144 425.294C407.795 422.515 395.692 418.883 390.052 417.287C370.734 411.799 357.049 400.898 342.344 379.089C324.895 353.477 333.735 356.457 357.625 384.35C384.858 416.221 393.384 418.56 535.453 431.997L660.083 443.798L672.947 432.989L685.832 421.935L662.542 426.799C629.367 433.632 603.858 432.893 544.445 423.31C436.14 406.164 399.779 393.049 376.7 362.891C357.479 337.863 362.626 338.063 386.372 363.362C410.899 389.588 408.612 389.021 544.681 405.012C657.139 418.215 685.439 417.966 702.547 403.591C717.401 391.11 716.934 390.824 690.317 395.767C648.319 403.679 575.7 391.844 462.252 358.882C440.179 352.54 412.94 346.242 401.644 344.647C390.327 343.295 380.761 341.605 380.204 340.941C376.415 336.432 422.94 340.102 464.6 347.406C491.723 352.219 547.9 362.259 589.316 369.542C694.544 388.143 716.567 387.964 734.853 368.527L746.337 356.614L712.659 365.002C675.967 374.112 647.752 373.385 572.316 361.427C521.981 353.493 431.03 333.304 431.172 330.243C431.533 326.094 504.681 331.828 592.267 342.627C710.875 357.224 747.637 354.391 768.515 329.154C775.379 320.898 781.05 313.644 781.113 312.912C781.177 312.18 770.391 316.039 757.261 321.415C712.4 339.652 678.869 340.676 590.625 326.132C556.801 320.614 516.011 314.615 499.569 312.819C482.771 310.869 471.714 307.942 473.836 306.159C482.854 298.581 523.553 298.548 609.329 306.116C734.399 317.095 780.938 313.511 801.075 291.161C818.495 271.772 817.227 270.801 789.481 281.671C739.834 301.214 687.633 303.446 601.787 289.601C581.657 286.379 564.372 284.387 563.311 285.278C562.25 286.17 555.841 286.351 549.251 285.779L537.048 284.72L543.812 279.037C547.525 275.916 556.846 271.93 564.38 270.125C572.025 268.453 587.946 262.089 599.766 256.23C625.729 243.238 651.641 239.339 717.822 238.936C769.986 238.546 826.771 234.499 845.738 229.875C855.022 227.73 861.213 222.981 878.904 204.721C892.951 190.203 910.701 175.514 929.104 163.219C944.632 152.886 958.499 143.27 959.958 142.045C961.284 140.93 963.926 141.651 965.82 143.906C968.272 146.823 966.861 148.914 958.872 153.139C938.155 163.758 863.235 229.427 861.608 238.26C854.552 275.639 866.291 391.123 880.791 428.037C884.533 437.337 888.812 453.2 890.029 463.264C891.489 473.35 894.41 487.866 896.835 495.33C902.993 515.045 898.212 512.048 885.984 488.61C880.306 477.543 870.673 459.617 864.485 448.753C843.777 412.53 839.288 372.182 847.477 291.992L852.615 241.291L842.813 252.244C831.928 264.331 831.71 265.419 828.962 363.662C827.331 420.692 828.636 452.403 833.579 473.365C838.23 493.44 828.127 588.586 822.11 581.425ZM590.314 505.364C589.338 505.279 573.156 507.563 554.338 510.479L520.314 515.764L548.487 516.979C568.828 517.761 578.781 516.412 584.351 511.732C588.707 508.298 591.423 505.337 590.314 505.364ZM843.564 240.752C842.561 239.558 832.969 242.414 821.987 247.116C796.438 258.177 753.236 264.386 705.459 263.805C609.529 262.733 566.189 267.7 634.318 271.769C746.24 278.41 809.937 272.627 832.748 253.46C839.644 247.665 844.567 241.945 843.564 240.752Z" fill="#02006C" fill-opacity="0.2"/>
<path d="M374.247 783.532C373.949 781.293 377.19 776.533 381.434 772.967C385.678 769.401 396.706 754.252 406.004 739.199C431.496 697.642 487.414 617.169 516.318 580.211C553.54 532.418 556.41 529.101 558.973 532.152C563.207 537.191 465.215 677.454 408.038 748.35C375.266 788.784 375.001 789.007 374.247 783.532Z" fill="#02006C" fill-opacity="0.2"/>
<path d="M353.854 759.262C358.575 753.033 371.411 735.458 382.195 720.288C428.863 655.733 508.521 560.969 517.673 558.935C524.432 557.555 525.864 555.22 479.345 618.067C439.264 671.882 376.421 745.729 357.52 760.933L345.361 770.697L353.854 759.262Z" fill="#02006C" fill-opacity="0.2"/>
<path d="M318.293 741.176C314.17 736.269 398.242 641.641 434.644 610.375L451.662 595.623L423.879 608.334C408.648 615.25 390.536 622.776 383.469 624.868C376.646 626.98 361.59 633.296 350.189 638.577C317.982 654.101 253.474 667.805 267.134 656.327C272.173 652.092 317.277 628.221 362.987 605.877C396.011 589.44 466.964 568.058 488.611 567.97L498.946 567.883L490.304 575.371C485.641 579.515 465.569 601.133 445.565 623.372C404.964 669.028 322.082 745.685 318.293 741.176Z" fill="#02006C" fill-opacity="0.2"/>
<path d="M511.497 556.432C449.223 568.486 246.141 593.645 246.389 589.364C247.449 577.161 479.757 539.661 527.969 543.723C544.565 545.163 536.008 551.674 511.497 556.432Z" fill="#02006C" fill-opacity="0.2"/>
<path d="M272.313 463.501C255.691 460.952 244.145 457.982 246.692 456.974C252.936 454.442 308.752 462.975 305.304 465.873C303.845 467.098 288.936 466.05 272.313 463.501Z" fill="#02006C" fill-opacity="0.2"/>
</g>
<defs>
<clipPath id="clip0_485_232">
<rect width="1039.35" height="741.401" fill="white" transform="matrix(0.765602 -0.643314 -0.643314 -0.765602 476.954 1059.24)"/>
</clipPath>
</defs>
</svg>
