<svg width="499" height="730" viewBox="0 0 499 730" fill="none" xmlns="http://www.w3.org/2000/svg">
<g clip-path="url(#clip0_480_182)">
<path d="M277.667 121.6C270.867 126.933 259.267 157.333 247.533 200.667C244.467 211.6 241.4 221.2 240.733 222C239.8 222.933 239.533 221.867 240.2 218.667C240.733 216.133 242.6 205.6 244.467 195.333C246.333 185.067 249.667 168.533 251.933 158.667C254.333 148.8 256.2 139.6 256.2 138.4C256.2 137.2 256.6 136.4 257 136.667C257.4 136.933 259.133 134.8 260.733 131.867C262.333 129.067 263.267 126.667 262.733 126.667C259.533 126.667 255.667 131.6 251 141.467C248.2 147.6 245.533 151.733 245.267 150.933C244.6 148.933 239.4 148.8 237.4 150.8C236.6 151.6 236.2 153.067 236.467 154C236.867 154.933 236.6 156.133 235.8 156.667C235 157.067 234.333 156.8 234.333 155.867C234.333 147.333 221.8 180.533 216.467 203.333C205.8 247.6 201.533 263.733 199.267 266.8C197.267 269.467 197 269.6 197.533 267.333C197.933 265.867 200.733 249.6 203.667 231.333C210.6 189.067 215.4 164.667 217.8 158.933C218.867 156.4 219.667 153.867 219.667 153.2C219.667 150.933 216.2 152 213.267 154.933C205.8 163.067 191.4 216.667 182.467 269.733C180.2 282.667 177.8 294.4 177.133 295.733C175.267 298.933 175.267 298.933 179.667 265.467C186.6 214.133 192.867 182.667 199.133 166C199.667 164.933 199.267 164 198.467 164C195.667 164 183.8 188.133 181.933 198C181.133 201.467 181.4 201.333 183.667 196.667C186.6 190.4 187.133 192.133 184.467 199.467C183.533 202.4 182.2 207.6 181.533 211.333L180.467 218L179.8 212.667C179.133 207.867 178.6 208.933 174.733 224.667C170.333 242.8 164.867 269.467 162.2 286.933C161.267 293.333 159.933 297.467 158.733 297.867C157.267 298.533 157 297.333 157.667 292.267C158.6 284.267 165 219.867 165.667 212C165.933 208.667 166.467 205.067 166.867 204C169 198.667 175 173.6 174.067 174.133C172.333 175.2 164.333 191.867 161.267 200.667C154.733 219.733 147.4 256.8 143.533 290C142.067 303.733 140.733 308.133 139 306.4C138.2 305.6 140.2 273.2 142.067 253.733C142.6 248.533 142.6 244.533 142.067 244.8C140.733 245.6 140.867 240.4 142.333 236C143.267 233.2 143.4 233.067 143.667 235.333C143.667 236.8 145.533 232 147.667 224.667C149.8 217.333 152.733 208.4 154.333 204.667L157.133 198.133L154.2 200.667C150.2 204.4 140.6 224 136.467 237.067C132.067 250.933 131.933 256 136.333 243.333C138.867 236 139.4 235.2 138.867 239.333C138.467 242.267 137.4 246.8 136.6 249.333C135.8 251.867 135 254.933 135 256C134.6 265.067 132.6 284 132.067 283.467C131.133 282.667 131.267 274.267 132.2 262C132.733 254.8 132.6 253.733 131.667 257.333C129.667 264.8 125.4 291.467 123.667 306.667C122.867 314.4 121.4 321.467 120.6 322.533C119.267 324.133 119.4 324.267 120.867 323.333C122.467 322.4 122.6 323.2 121.933 327.2C121 333.067 118.333 336.933 117 334.667C115.933 332.933 110.467 341.867 107.8 349.333C105.8 355.333 107 356 109.667 350.267C110.867 347.733 113.133 344.533 114.6 343.067C116.2 341.733 115 344.533 111.8 349.6C108.6 354.667 106.333 359.333 106.6 360C106.867 360.8 108.6 358.933 110.333 356C112.2 352.933 114.333 349.733 115.133 348.933C115.8 348 116.867 346.133 117.4 344.8C117.933 343.467 118.733 342.667 119.133 343.067C119.667 343.6 109.533 362.267 105.667 367.733C104.867 368.667 101.133 366.267 101.8 365.2C102.2 364.533 103 364.267 103.667 364.667C104.333 365.067 105.267 364.667 105.8 363.867C106.333 362.933 106.2 362.667 105.267 363.067C104.333 363.733 104.2 362.133 104.6 358.4C105.533 350.133 107.533 344.133 111.933 337.067C114.733 332.4 115.933 328.8 116.333 322.4C116.6 317.867 117.267 309.867 117.667 304.8C118.467 297.867 118.2 295.467 116.867 294.533C115.4 293.733 115.4 291.867 116.6 284.533C117.533 279.6 118.733 275.2 119.533 274.8C120.2 274.4 122.067 269.2 123.533 263.333C125 257.467 127.4 249.067 128.867 244.667L131.533 236.667L127.267 241.6C121.4 248.267 114.6 264.533 110.733 280.533C109 287.733 107.933 294 108.2 294.4C108.6 294.667 109.533 292.267 110.333 289.2C113.267 278 114.733 273.333 115.267 273.867C116.067 274.667 112.733 292.4 111.267 295.333C109.933 297.733 109.533 303.067 109.133 327.067C108.867 340.8 106.333 334 106.333 319.733C106.333 305.6 105.4 303.2 104.2 314.133C101.533 338.933 101.133 339.467 98.7333 321.333L97.5333 312.667L95.2667 316.933C94.0667 319.333 93 322.4 93 323.867C93 327.2 91 328.667 90.6 325.6C90.4667 324.4 90.2 322.4 90.0667 321.333C89.8 320.267 90.2 314.267 91 308C92.0667 297.6 92.2 297.067 92.8667 302.667C93.5333 307.6 94.0667 305.2 96.3333 288.667C97.8 277.6 99 265.6 99.1333 262C99.1333 258.267 99.9333 253.6 100.733 251.6C102.6 247.067 102.733 246.267 101.133 247.333C98.8667 248.667 88.3333 286.533 83.6667 309.733L82.0667 317.467L75.2667 306C68.3333 294.267 63.9333 288.667 62.7333 289.867C62.3333 290.267 63.5333 293.067 65.4 296.267C68.6 301.733 68.6 302.4 67.1333 310.667L65.4 319.333L61.2667 311.333C57.4 303.867 57.1333 303.6 56.8667 307.333C56.3333 314.267 56.8667 316.4 60.4667 324.267C63.5333 330.533 63.9333 332.667 62.8667 336.267L61.5333 340.533L57.8 334C54.0667 327.6 47.6667 320 47.6667 321.867C47.6667 322.4 48.8667 325.333 50.3333 328.4C53.2667 334.4 51.1333 332.267 47.2667 325.2C45.9333 322.933 44.6 321.333 44.2 321.733C43.8 322.133 44.3333 324.133 45.5333 326.267C48.7333 331.867 53.4 342.933 53.9333 346.133C54.2 348 53.5333 349.2 52.0667 349.733C50.7333 350 48.7333 350.8 47.5333 351.2C44.3333 352.533 37.5333 340.267 39.5333 337.067C41.6667 333.6 41.4 332.933 38.2 333.733C36.0667 334.267 34.6 333.067 31 327.6C28.6 323.733 23.5333 317.6 19.6667 314L12.8667 307.333L20.4667 321.333C24.6 329.067 28.4667 335.867 29.1333 336.533C31 338.533 30.6 340.533 27.8 342.267C25.5333 343.733 24.6 342.8 19 334.267C10.7333 321.733 0.999992 310.667 -4.2 307.6C-8.33334 305.2 -8.2 305.467 -1.8 314.267C1.8 319.2 7.8 328.933 11.5333 335.867C17.8 347.467 18.2 348.533 15.9333 350.267C10.7333 354.4 8.99999 354.933 8.06666 352.533C7.53333 351.2 8.06666 349.867 9.39999 349.067C12.6 347.333 12.3333 344.933 9.13333 346.667C7.66666 347.333 6.2 348 5.93333 348C5.66666 348 0.999992 342.267 -4.33334 335.333C-13.6667 323.067 -19 318 -19 321.467C-19 322.4 -20.6 321.733 -22.6 319.867C-25.8 317.067 -25.6667 317.333 -21.8 322.267C-17.2667 328.267 -5.66667 345.6 -3.00001 350.533C-1.8 352.8 -1.8 354 -3.13334 355.467C-5.4 358.267 -6.33334 357.867 -10.2 351.867C-15.1333 344.4 -33.5333 325.333 -35.8 325.333C-36.8667 325.333 -37.6667 324.8 -37.6667 324.133C-37.6667 323.467 -39.2667 321.867 -41.4 320.533L-45 318.133L-41.4 322.8C-39.4 325.333 -37.2667 327.2 -36.4667 327.067C-35.8 326.933 -32.0667 330.533 -28.3333 335.067L-21.4 343.333L-28.8667 335.333C-32.8667 330.933 -36.3333 327.733 -36.3333 328.267C-36.3333 328.8 -32.8667 333.867 -28.6 339.6C-24.3333 345.333 -19 353.2 -16.6 357.067L-12.3333 364.133L-16.3333 369.067C-18.4667 371.733 -21.4 375.467 -22.8667 377.333C-24.8667 380 -25.8 380.267 -27.1333 379.067C-28.4667 377.733 -28.3333 376.933 -26.8667 375.067C-25.1333 372.933 -25.2667 372.8 -27.1333 374.4C-29.1333 375.867 -29.9333 375.333 -33.8 370.4C-36.3333 367.333 -41.6667 361.067 -45.6667 356.533C-49.6667 352 -58.0667 340.8 -64.3333 331.6C-70.6 322.4 -75.8 315.067 -75.9333 315.2C-77 316.133 -63.5333 358.933 -60.0667 365.6C-58.6 368.667 -58.7333 368.667 -66.4667 364.533C-72.3333 361.467 -72.7333 361.333 -69.6667 364C-67.8 365.6 -65.1333 367.733 -63.6667 368.8C-61.1333 370.667 -61.1333 370.667 -63.6667 372.533C-65.9333 374.133 -66.8667 373.867 -72.2 369.733C-76.2 366.8 -78.4667 365.733 -78.8667 366.8C-79.1333 367.733 -78.2 369.2 -76.8667 370.133C-75.4 371.2 -69.1333 376 -62.7333 380.8L-51.2667 389.733L-45.9333 402.8L-40.7333 415.733L-50.8667 407.467C-56.4667 402.933 -65 396 -69.9333 392.133L-79 385.067V389.733C-79 393.733 -77.8 395.2 -68.3333 403.2C-62.4667 408.133 -53.6667 415.867 -48.8667 420.267L-40.2 428.533L-43.6667 430.4C-47.8 432.533 -47.1333 432.933 -67.2667 413.333C-78.6 402.4 -79 402.133 -79 406C-79 409.467 -77 411.6 -64.2 421.733C-52.3333 431.333 -49.8 433.867 -51 435.333C-54.7333 439.733 -57.5333 438.933 -67.8 430.667C-73.4 426.267 -78.3333 422.933 -78.8667 423.333C-79.2667 423.867 -78.2 425.2 -76.4667 426.533L-73.2667 428.933L-76.2 430.933L-79 432.933L-78.7333 500.8L-78.3333 568.667L-73.4 579.867C-70.6 586.133 -68.4667 591.333 -68.7333 591.467C-69.8 592.533 -72.3333 589.2 -75.4 582.667L-79 575.333V602.133C-79 628.667 -79 628.933 -75.9333 630.4C-73.8 631.467 -73.5333 631.867 -75.1333 631.867C-76.3333 632 -77.6667 632.933 -78.0667 634C-78.6 635.067 -78.8667 656.933 -79 682.667V729.333H-68.3333H-57.6667L-59.8 726C-62.6 721.733 -61.8 720.933 -55.6667 722.133C-51.4 722.933 -50.8667 723.467 -51.4 726.133L-51.9333 729.333H26.4667H105L105.8 726.267C106.467 723.6 122.333 709.2 122.333 711.333C122.333 713.733 116.2 723.733 113.133 726.267L109.667 729.2L132.333 729.333H155.133L161 723.2C167.8 716.267 188.2 703.333 204.2 696C211.133 692.667 220.2 689.867 229.667 688C237.8 686.4 244.867 684.533 245.667 683.867C246.467 683.067 245.4 682.933 243 683.333C240.733 683.733 230.867 684.933 221 686C206.733 687.733 201.133 688.933 194.333 692.133L185.667 696L191.667 691.067C195 688.267 200.733 683.2 204.467 679.733C216.2 669.333 231 660 235.933 660C255.4 660.267 291.267 678.4 329 707.067C336.733 712.933 343.933 718.4 345 719.2C346.067 720 345.8 719.333 344.467 717.333C339.4 710.533 308.867 687.333 289.667 675.733C283.8 672.267 279.8 669.333 280.867 669.333C285 669.333 307.667 677.867 319.8 684.133C335.8 692.4 347.133 700.8 363.933 717.067C374.733 727.6 377.4 729.467 380.467 729.067C384.067 728.667 383.8 728.267 371.667 715.6C344.867 687.6 303.133 666 266.6 661.2C260.2 660.4 252.333 658.8 249 657.733C245.667 656.667 242.2 655.467 241.133 655.2C239.667 654.667 239.8 654 241.8 651.733C244.333 648.933 244.333 648.933 240.333 650.133C234.333 651.867 227.133 651.467 212.333 648.933C205 647.6 192.467 646.133 184.467 645.6L169.8 644.667L185.133 634.133C220.733 609.333 238.467 598.933 271.4 583.067L291.933 573.2L298.733 575.467C302.6 576.667 310.467 580 316.333 582.8C330.6 589.6 346.733 596 347.4 595.333C347.8 595.067 345.133 593.467 341.533 592C322.067 583.733 297.267 571.333 297.933 570.133C298.467 569.467 297.8 569.2 296.733 569.733C294.867 570.4 276.733 565.467 275 563.867C274.467 563.2 309.667 545.2 323.133 539.2C327.133 537.467 331.267 536.4 332.467 536.933C333.933 537.467 334.467 537.2 333.933 536.267C332.333 533.733 362.2 523.333 405.667 511.467L432.333 504.133L436.733 509.067C439.133 511.733 440.733 513.067 440.2 512C439.667 510.933 438.067 508.667 436.6 507.067C434.467 504.667 434.333 504 435.8 503.467C445.667 500.267 449.267 498.8 447.533 498.8C446.333 498.667 442.733 499.467 439.267 500.533C433.4 502.267 433 502.267 430.2 499.2C426.733 495.467 424.867 496.133 428.2 499.867C430.867 502.8 432.2 502.267 411.667 507.333C390.6 512.533 360.733 521.867 345.4 528C334.067 532.533 328.067 534.267 326.467 533.467C325.267 532.933 320.333 531.333 315.267 530L306.333 527.6L329.267 515.2C358.733 499.2 375.933 492 409.4 481.333C411.933 480.533 414.867 480.8 418.733 482.133C423.667 483.733 424.067 483.733 421.8 482C420.333 480.933 418.467 480 417.8 479.867C417 479.733 420.6 478.4 425.667 476.667C437.133 472.933 434.333 472.4 421.667 475.867C416.6 477.333 411.933 478.133 411.267 477.733C410.733 477.467 409.4 477.867 408.333 478.667C407.267 479.6 405.4 480 404.333 479.467C403.133 479.067 402.467 479.2 402.867 479.867C403.267 480.4 399.8 482 395.267 483.2C382.2 486.8 343.667 502.8 319.533 514.533C297.8 525.067 293.933 526.267 286.333 524.133C283.4 523.333 286.733 521.067 310.6 507.467C341 490.267 373.267 474.667 381.133 473.733C383.933 473.333 388.067 473.733 390.467 474.533C396.2 476.533 397.267 475.2 391.667 472.8L387.267 470.933L394.6 468.8C404.867 465.867 418.333 463.2 432.333 461.333C438.867 460.533 444.6 459.6 444.867 459.2C447 457.067 407.8 461.467 390.467 465.333C383.8 466.8 375.8 468 372.733 468C367.4 467.867 367.133 467.733 369.533 466C373.4 463.067 391.933 456.133 403.533 453.333C409.133 451.867 419.667 450.267 427 449.733C440.067 448.533 440.2 448.533 435 446.933C432.067 446 425.8 445.333 421 445.2C413.533 445.067 412.867 444.933 416.333 443.867C418.6 443.2 424.867 441.733 430.333 440.8L440.333 438.933L427 438.8C407.667 438.667 388.733 443.6 360.6 456.267L348.867 461.6L343.4 459.333L337.933 457.2L340.067 460.533C341.267 462.4 341.8 464.133 341.267 464.4C340.733 464.8 335.267 465.467 329 466C316.733 466.933 296.733 471.467 284.467 476C275.667 479.333 275 481.067 283.667 478C290.467 475.6 314.067 470.667 318.6 470.667C320.2 470.667 316.467 472.533 309.933 474.667C293.667 480.133 270.733 489.867 255.4 497.467C248.2 501.067 242.067 504 241.667 504C239.8 504 241.4 501.333 245.667 497.2C248.2 494.667 250.333 492 250.333 491.333C250.467 483.6 311.133 457.333 328.6 457.333C331.8 457.333 334.333 456.8 334.333 456.267C334.333 454 327.4 452 319.933 452C308.733 452 298.2 455.2 282.333 463.333C272.733 468.4 269.533 469.6 272.333 467.2C279.933 460.667 291.8 452.133 294.333 451.333C297.933 450.133 297.667 448.267 293.8 447.2C290.067 446.267 283.133 449.067 277.4 453.867L273.133 457.467L276.2 449.733L279.133 442L285.8 441.2L292.333 440.4L286.067 440.267C282.467 440.133 279.667 439.6 279.667 438.933C279.667 438 284.467 417.467 285.667 412.667C286.067 411.2 287 406.4 287.8 402C289.8 390.267 289.933 390 292.6 392.133C294.733 393.867 294.733 393.733 292.733 390.933C291.133 388.533 290.867 386.8 291.8 383.6C294.067 375.6 293.4 374.267 289.133 378.933L285.4 383.2L277.933 376.8C250.6 353.6 217.4 346.933 182.733 358.133C179.267 359.2 184.733 354.933 199.8 344.667C206.867 339.867 214.6 334.133 217.133 331.867L221.667 328L213.667 331.333C202.6 336.133 190.6 342.8 175.4 352.8C168.2 357.467 162.333 360.667 162.333 359.867C162.333 357.467 178.867 341.867 186.867 336.8C191 334.133 194.333 331.733 194.333 331.333C194.333 330.267 189.533 332.933 182.333 337.867L176.333 341.867L183.267 333.733C187.133 329.333 192.867 323.467 195.933 320.667C199.133 317.867 206.2 311.6 211.667 306.533C235.4 284.8 251.933 274.133 282.333 260.667C295 255.067 333.8 243.733 348.733 241.333C355.133 240.267 355.667 240.667 359.533 249.467C362.867 256.533 363.267 254.267 360.2 246.533C358.333 241.867 358.2 240.933 359.8 239.867C361.267 238.933 360.867 238.667 358.733 238.667C355 238.667 354.733 236.4 358.333 235.6C360.467 235.067 360.333 235.067 357.933 235.2C355.133 235.333 349.133 231.2 350.467 230.133C350.733 229.867 353.667 229.067 357 228.4L363 226.933L355.4 227.6C349 228.267 347.267 227.867 344.2 225.467C342.2 224 339.933 222.667 339.133 222.667C338.333 222.667 339.133 223.867 341 225.333C346.067 229.2 344.733 229.867 329 231.2C320.333 232 299.533 239.2 283.933 246.933C277.8 249.867 272.467 252 272.067 251.467C271.667 251.067 273.133 249.867 275.533 248.933C277.8 248 279.267 246.667 278.733 246C278.067 245.467 278.733 245.333 280.067 245.733C281.4 246.267 282.2 246.133 281.667 245.467C280.867 244 292.733 235.067 298.2 233.2C300.467 232.4 302.067 231.2 301.667 230.667C301.267 230 302.6 228.533 304.6 227.467C306.6 226.4 307.8 225.467 307 225.333C306.333 225.333 307.4 224.4 309.533 223.333C311.667 222.133 314.333 221.6 315.267 222C316.333 222.267 316.867 222.133 316.467 221.467C316.067 220.8 317 219.467 318.733 218.4C322.6 215.867 361.133 202.133 370.067 200C373.933 199.067 376.867 198.133 376.6 197.733C375.4 196.667 347.667 204.4 337.667 208.533C334.867 209.733 332.333 210.4 332.067 210.133C331 209.2 343.267 201.467 344.333 202.4C345 202.933 345 202.667 344.6 201.867C344.067 201.067 345 199.2 346.467 197.867C348.067 196.4 356.733 185.733 365.667 174C374.733 162.267 386.867 146.667 392.867 139.333C398.733 132 403.667 125.467 403.667 124.667C403.667 122.533 390.333 136.267 380.067 148.933C374.733 155.733 369.933 161.333 369.667 161.333C367.8 161.333 374.867 150.933 382.867 142C396.467 126.667 390.6 131.733 360.6 161.333C335.933 185.467 317.133 205.867 304.333 222C301.4 225.6 298.467 229.067 297.667 229.6C294.467 232 294.467 230.267 297.667 224.933C301.533 218.667 310.467 200.4 322.6 173.333C331.933 152.667 336.333 145.867 343.4 141.733C348.733 138.4 347.133 137.467 341.267 140.533C336.467 143.067 325.133 155.067 319.667 163.333C309.667 178.533 288.6 220.533 287.133 228.267C286.2 233.467 284.733 236 282.2 237.467C279 239.2 278.867 239.333 283.8 227.867C286.2 222.4 293.933 202.8 301.133 184.133C314.067 150.533 317.133 144.4 325.4 136C327.933 133.333 328.6 132.133 327 133.067C322.6 135.333 312.2 146.8 307.133 154.933C299.667 166.8 285 197.333 276.333 219.067C271.267 231.733 267.533 239.333 265.8 240.267C263.667 241.467 263.4 241.333 264.2 239.2C265.667 235.6 279.933 186.533 285.533 165.467C291.133 144.933 295 136.667 302.6 129.067C307.8 123.867 307.933 123.733 303.667 126.133C287.933 135.333 273.667 166.4 256.867 228C251.933 246.133 249.133 252.933 247.933 249.6C247.8 248.933 249.933 239.6 252.867 228.533C255.667 217.6 261.4 193.6 265.533 175.333C274.333 135.6 275.533 131.733 280.067 124.267C284.067 118 283.267 117.2 277.667 121.6ZM233 356C234.867 356.533 235.4 357.2 234.333 357.333C232.067 357.467 252.333 365.467 255.933 365.733C257.133 365.867 257.8 366.4 257.533 366.933C257.133 367.467 258.333 368.533 259.933 369.467C265.667 372.4 283.667 384.667 283.267 385.333C283 385.733 280.2 391.467 276.867 398.133L271 410.4L261 411.2C251.933 412 224.6 418.133 216.333 421.333C214.467 422 213 422.133 213 421.6C213 421.067 211.267 413.2 209.133 404C207 394.8 204.867 384.4 204.333 381.067C203.8 377.6 202.6 373.733 201.533 372.4C199.8 370.133 199.533 370.133 197.533 372.667C195.8 374.933 195.533 377.6 196.333 389.333C196.733 397.067 197.933 407.733 198.867 413.067C200.6 422.4 200.467 422.8 197.8 424.267C196.2 425.067 194.733 425.6 194.333 425.467C194.067 425.333 193.533 425.733 193.267 426.533C193 427.333 193.667 427.6 194.733 427.2C197.933 426 198.333 428.533 195.533 432.8C193.8 435.333 193 436 193 434.4C193 433.2 192.467 432 191.933 431.733C191.267 431.467 189.267 426.267 187.267 420C181 399.867 172.333 378.267 170.067 376.933C168.467 375.867 165.667 376.4 159.133 379.2C154.2 381.333 149.933 382.667 149.533 382.267C149.133 381.867 154.733 377.2 161.933 371.733C176.467 360.933 179.933 358.667 181.133 359.467C181.533 359.733 183.933 359.333 186.467 358.533C189 357.733 198.467 356.667 207.667 356.133C229.8 354.8 229.133 354.8 233 356ZM165 383.333C165 385.067 167.533 396.267 170.467 408.133C175 425.733 175.667 429.867 174.2 430.8C173.133 431.467 171.8 431.733 171.133 431.6C170.467 431.333 167.8 424.933 165 417.333C161 406 155.8 393.6 151.933 386.4C151.4 385.333 160.733 380.133 163.4 380C164.2 380 165 381.467 165 383.333ZM150.333 414C154.067 424.8 157 434.533 157 435.333C157 436.933 149.267 441.067 148.6 439.867C147.933 438.533 136.733 405.733 136.2 403.333C135.4 399.867 140.733 391.2 142.467 392.933C143.133 393.6 146.733 403.067 150.333 414ZM264.2 427.6L259.4 439.6L250.467 440.4C243 441.067 232.867 443.2 223.4 446.133C221.4 446.667 220.067 444.933 219.533 440.667C219.4 439.867 218.2 437.867 216.867 436.133C215.4 434.4 214.333 432.267 214.333 431.333C214.333 428.933 230.467 423.067 247 419.467C260.733 416.4 267.933 415.067 268.6 415.333C268.867 415.467 266.733 420.933 264.2 427.6ZM135.133 443.467C135.8 447.333 135.4 447.867 129.933 451.2C126.6 453.067 123.533 454.667 123.267 454.667C123 454.667 121.133 450.133 119.133 444.667C116.067 435.867 115.8 434.4 117.4 431.733C118.467 430 121 425.6 123.133 422L126.867 415.333L130.6 427.333C132.6 433.867 134.733 441.2 135.133 443.467ZM256.467 447.333C253.933 454 248.6 473.2 247.133 481.2C245.533 489.733 240.6 500 238.067 500C237 500 236.867 499.6 234.2 485.333C233.4 480.533 230.867 471.333 228.733 464.933C226.6 458.4 225 452.8 225.267 452.533C226.467 451.467 249.933 445.467 253.533 445.467C256.333 445.333 257.133 445.867 256.467 447.333ZM114.467 472C115.4 474.933 115.8 477.467 115.533 477.733C115.267 477.867 111.267 480.933 106.733 484.4C102.2 487.867 97.9333 490.667 97.1333 490.667C96.3333 490.667 94.7333 488.8 93.5333 486.533C91.5333 482.533 91.5333 482.133 94.0667 479.733C97.1333 476.667 110.6 466.933 111.933 466.8C112.467 466.667 113.667 469.067 114.467 472ZM308.333 479.867C307.533 480.667 293.533 487.733 277 495.733C248.733 509.333 246.867 510.133 244.6 508C242.333 505.867 242.733 505.467 251.267 500.933C263.4 494.667 283.4 486.4 295.667 482.8C301.133 481.067 306.333 479.6 307 479.333C309.4 478.533 309.533 478.667 308.333 479.867ZM121.533 494C122.333 497.867 121.933 498.533 113.8 504.267C109.133 507.733 104.867 510.133 104.467 509.733C102.867 508 103.8 505.733 106.733 504.267C109.533 502.8 109.533 502.8 106.067 503.467C103.133 504.133 102.2 503.6 100.467 500.133C98.3333 496.133 98.3333 496.133 102.733 492.933C105 491.2 109.4 488.133 112.333 486.133L117.667 482.667L119.133 486.267C120.067 488.4 121.133 491.867 121.533 494ZM213.533 502.267C214.733 510.267 215.667 518.933 215.667 521.733C215.667 526.667 215.533 526.8 211.4 526.4C207.267 526 207 525.6 206.733 520.667C206.467 517.733 205.667 510 204.867 503.467C203.533 492.533 203.533 491.333 205.8 489.733C210.467 486.4 211.267 487.733 213.533 502.267ZM294.333 491.2C294.333 491.6 282.067 498.8 267 507.333C247.667 518.4 237.933 523.067 233.933 523.6C230.867 523.867 228.6 523.867 229 523.6C231.267 521.467 247.667 512.267 247.667 513.067C247.667 513.6 248.2 513.333 248.733 512.533C250.067 510.667 258.733 506.267 277.667 497.867C294.867 490.133 294.333 490.4 294.333 491.2ZM93.6667 518.8C92.3333 520.8 77 533.333 75.8 533.333C75.2667 533.333 74.0667 531.867 73.2667 530C71.9333 527.067 72.2 525.467 74.7333 520.4C77.2667 514.933 78.6 513.867 84.3333 511.867L91 509.733L92.7333 513.6C93.6667 515.733 94.0667 518 93.6667 518.8ZM129 516.267C129 516.533 129.933 519.467 130.867 522.933L132.867 529.2L124.333 534.4L115.933 539.733L113.133 532.4C111.533 528.4 110.333 524.8 110.333 524.533C110.333 523.333 129 515.2 129 516.267ZM263 529.2C262.2 529.867 250.867 537.467 237.667 546.133C217 559.733 212.733 562 206.733 562.667C199.933 563.467 199.8 563.467 202.067 560.933C209.667 552.4 252.333 528 259.667 528C262.333 528 263.667 528.533 263 529.2ZM286.867 529.2C289 530 288.467 530.8 282.867 534C279.267 536.133 268.2 542.933 258.333 549.333L240.333 560.8L229.667 561.067C222.333 561.2 219.667 560.933 221 560C222.067 559.333 234.733 551.867 249 543.467C275.267 528.133 279.8 526.4 286.867 529.2ZM102.333 537.333C104.067 541.867 105.133 545.733 104.733 546C103.667 547.067 87.5333 557.333 87 557.333C85.2667 557.333 80.8667 545.867 81.2667 542.4C81.6667 538.933 82.8667 537.6 89.6667 533.867C94.0667 531.333 98.0667 529.333 98.4667 529.333C99 529.333 100.733 532.933 102.333 537.333ZM233.533 536.8C227 540.933 216.333 547.867 209.933 552.267L198.067 560.267L202.6 553.6C205.533 549.2 210.733 544.4 218.2 539.333C230.2 531.2 233.667 529.6 240.867 529.467C245.267 529.333 244.733 529.867 233.533 536.8ZM319.667 534L327 535.733L319.667 538.8C315.667 540.533 302.867 546.533 291.267 552.267L270.2 562.667L258.2 561.733L246.2 560.933L251.267 557.867C254.067 556.267 266.2 549.467 278.333 542.8C302.6 529.467 301.667 529.6 319.667 534ZM185.667 552.133C188.333 565.333 187.933 566.667 181.4 566.667C179.667 566.667 177.933 566.8 177.4 566.933C176.867 567.2 175.667 561.733 174.733 554.8C172.733 541.067 173 540 179.8 540C183 540 183.267 540.667 185.667 552.133ZM163.533 548.933C166.733 560.8 167.933 568.267 166.733 569.467C166.067 570.133 163.267 570.8 160.467 571.067L155.4 571.333L152.333 559.067L149.4 546.8L154.2 545.6C161.667 543.6 162.2 543.733 163.533 548.933ZM142.2 561.333C143.8 567.333 145.4 572.8 145.8 573.733C146.2 574.8 143.4 576.4 137.933 578.133L129.533 580.933L125.8 568.933C123.8 562.4 122.6 556.667 123 556.133C124.2 554.933 134.733 550.933 137.133 550.8C138.733 550.667 140.067 553.467 142.2 561.333ZM114.733 571.067C116.733 577.2 118.333 583.067 118.333 584.133C118.2 585.867 101.533 594.4 100.467 593.2C100.2 592.933 97.8 587.067 95.2667 580.267C90.6 567.867 90.6 567.867 93.5333 566.533C98.7333 564.4 109.667 560.133 110.333 560.133C110.733 560 112.733 564.933 114.733 571.067ZM231.667 565.867C231.667 566.133 227.933 568.533 223.4 571.467C208.733 580.267 180.6 598.933 174.467 603.6C171.267 606 168.333 607.733 168.067 607.467C167.8 607.2 169.933 603.2 173 598.533C178.467 590 183 585.867 200.467 573.467C210.2 566.533 209.4 566.8 228.067 565.6C230.067 565.467 231.667 565.6 231.667 565.867ZM260.2 566.133C261.533 566.667 252.467 572.8 233.933 583.867C204.2 601.6 177.267 618.933 158.467 632.267L147.267 640.267L150.333 635.067C161.4 616.933 163.133 614.933 177.267 604.133C193.667 591.733 205.4 584 224.333 573.067C237.4 565.467 237.8 565.333 247.933 565.333C253.533 565.333 259 565.733 260.2 566.133ZM279 569.6C281.933 570.267 285.4 571.067 286.6 571.467C288.067 571.867 279 577.2 261.933 585.867C233.4 600.267 204.733 617.467 179.933 634.933C169.133 642.533 163.4 645.733 159.933 646.133C157.267 646.4 152.333 646.933 149.133 647.333L143.267 648L148.467 644.133C151.267 642 158.2 636.533 163.667 632C188.333 612 263.933 566.267 270.333 567.6C272.2 568 276.067 568.8 279 569.6ZM150.067 590.533L152.733 600.267L145.933 609.733L139 619.067L138.067 613.6C137.533 610.533 135.8 603.067 134.067 597.067C132.467 590.933 131 585.467 131 584.667C131 583.2 145.267 578.667 146.467 579.867C147 580.267 148.6 585.067 150.067 590.533ZM68.2 581.067C68.4667 581.6 68.0667 585.333 67.1333 589.333C65.5333 596.533 65.5333 596.533 58.8667 598.133L52.3333 599.733L58.0667 599.867C63.1333 600 63.6667 600.267 63.6667 603.333C63.6667 607.2 61.1333 607.733 56.4667 604.667C54.7333 603.467 52.3333 602.933 51.1333 603.467C48.3333 604.533 49.4 606.133 53.9333 607.333C59.5333 608.667 61.9333 611.467 61.2667 615.6C60.8667 618.267 57.5333 621.867 49.4 628.4C39.1333 636.667 37.8 637.333 35.9333 635.6C34.0667 633.733 34.2 632.4 37 622.4C39.6667 612.933 41 610.533 46.0667 605.6L52.0667 600H47.8C42.3333 600 42.6 598.667 48.7333 593.733C52.8667 590.4 54.3333 589.867 56.4667 590.933C58.6 592.133 58.7333 592 57.2667 590.533C55.9333 589.067 56.4667 588 60.6 584.4C65.9333 579.867 67.1333 579.333 68.2 581.067ZM126.2 607.733C129.133 617.6 131.933 626 132.333 626.667C133.133 627.867 118.6 649.333 117 649.333C116.467 649.333 115.667 646.933 115.133 644C114.733 641.067 111.4 629.333 107.8 618L101.4 597.467L105.667 596C107.933 595.2 111.933 593.067 114.333 591.333C116.867 589.467 119.267 588.4 119.8 588.933C120.333 589.6 123.267 598 126.2 607.733ZM-45.6667 602.267C-44.4667 603.467 -38.8667 622.667 -39.6667 622.667C-39.9333 622.667 -44.8667 620.533 -50.6 618L-61 613.467L-60.6 608.4C-59.9333 597.333 -59.8 597.2 -52.7333 599.333C-49.4 600.4 -46.2 601.733 -45.6667 602.267ZM92.7333 606.933C97.1333 616.267 109.4 653.867 108.067 654.267C107.533 654.533 98.4667 657.6 87.9333 661.2L68.8667 667.6L66.2 663.733C63.6667 660.133 63.5333 659.333 65 650.267C65.9333 645.067 66.8667 640.133 67.2667 639.6C67.6667 639.067 68.0667 635.467 68.3333 631.6C69.1333 617.867 70.3333 614.8 75.8 611.067C78.6 609.2 81.5333 608.133 82.2 608.667C83 609.067 83.6667 608.667 83.6667 607.6C83.6667 606.533 85 604.667 86.7333 603.467C89.5333 601.2 88.4667 601.2 83 603.467C81.6667 604 81 603.467 81 602C81 600.4 82.0667 599.867 85.4 600.267C89 600.667 90.0667 601.6 92.7333 606.933ZM-46.3333 628.667C-37.9333 632.533 -35.9333 634 -34.3333 637.867C-33.2667 640.533 -32.3333 644.4 -32.3333 646.533V650.533L-46.7333 640.8C-54.6 635.467 -61.8 630.8 -62.6 630.533C-63.5333 630.267 -63.8 628.4 -63.4 626.267C-62.4667 621.733 -61.1333 621.867 -46.3333 628.667ZM42.7333 646.133L47.8 649.467L45.1333 653.067C43.8 655.067 41 658.133 39 660C37 661.867 34.6 664.933 33.5333 666.933C31.4 671.2 30.4667 671.333 27 668.933C24.7333 667.067 24.7333 666.8 27 658.133C29.5333 648.933 33.2667 642.667 36.0667 642.667C37 642.667 39.9333 644.133 42.7333 646.133ZM-40.6 659.2C-35.9333 664.133 -33.6667 667.467 -34.2 668.8C-34.6 670 -35 671.733 -35 672.667C-35 674 -36.6 673.867 -42.6 672.133L-50.2 669.867L-51.8 660.267C-52.7333 654.933 -53.8 649.6 -54.2 648.533C-55.4 645.333 -48.7333 650.533 -40.6 659.2ZM197.533 651.6L208.067 652.4L204.6 654.933C202.6 656.4 201.4 658.267 201.933 659.067C202.333 660 202.2 660.267 201.667 659.6C201 659.067 199.667 659.467 198.467 660.533C197.267 661.6 191.267 664.533 185 667.067C170.867 672.8 148.6 685.867 136.333 695.867C124.733 705.2 108.333 717.333 107.133 717.333C105.267 717.333 108.333 709.333 114.733 697.467C121.8 684.667 126.333 680 155.667 655.467L163 649.333L175 650C181.667 650.4 191.8 651.067 197.533 651.6ZM104.467 669.467C98.0667 679.067 95.6667 680.267 91.2667 676.4C88.8667 674.133 88.7333 674.133 87 676.533C85.9333 677.867 85.4 679.6 85.6667 680.4C86.2 682 82.7333 687.733 81.9333 686.533C75.8 677.733 71.6667 670.133 72.6 669.333C73.6667 668.267 88.6 663.6 103 659.6C106.733 658.667 109.933 658.4 110.2 659.067C110.333 659.6 107.8 664.267 104.467 669.467ZM209.667 664.8C199.8 670.8 170.467 691.867 145.667 710.933L127 725.333L126.6 720.533C126.2 716.667 127 714.8 129.933 711.733C134.6 706.8 142.467 702.667 147.267 702.667C149.667 702.667 150.467 702.267 149.533 701.333C148.067 699.867 135 703.2 133.667 705.333C132.467 707.2 130.333 706.933 130.333 704.933C130.333 700.933 182.067 670.133 198.867 664C204.867 661.867 211.533 660.133 213.667 660.133C217.4 660 217 660.4 209.667 664.8ZM71.8 683.6L78.6 693.6L75.6667 701.733C74.0667 706.267 72.3333 710.4 71.8 710.8C71.4 711.333 68.0667 708.4 64.4667 704.4L57.9333 697.2L59.6667 685.6C60.6 679.2 61.5333 673.6 61.9333 672.933C63 671.2 64.8667 673.2 71.8 683.6ZM-41.1333 675.467C-35 677.6 -34.8667 677.733 -35.2667 682.533C-35.6667 687.2 -35.8 687.333 -41 687.067L-46.3333 686.8L-41.2667 688.933C-37.4 690.533 -36.3333 691.733 -36.3333 694.533C-36.3333 701.467 -38.2 701.2 -44.6 693.733C-50.3333 687.2 -51 685.867 -51 679.867C-51 672.4 -50.6 672.267 -41.1333 675.467Z" fill="#02006C" fill-opacity="0.2"/>
<path d="M398.333 543.467C364.867 546.4 322.6 556.667 305 566.267C298.2 569.867 298.467 569.867 317.267 563.467C336.467 556.933 353.533 552.667 373.667 549.467C390.733 546.667 429 543.733 433.8 544.667C435.267 544.933 441.133 545.467 447 545.733C455.133 546.267 456.733 546 453.667 545.067C449.533 543.733 409 542.533 398.333 543.467Z" fill="#02006C" fill-opacity="0.2"/>
<path d="M221 697.733C203.533 704.8 193.933 710.133 180.333 720.533L169.667 728.667L180.733 729.067L191.8 729.467L208.733 715.6C218.067 708 229 699.6 233 696.933C242.733 690.4 238.733 690.667 221 697.733Z" fill="#02006C" fill-opacity="0.2"/>
</g>
<defs>
<clipPath id="clip0_480_182">
<rect width="577.333" height="769.333" fill="white" transform="translate(-79 -40)"/>
</clipPath>
</defs>
</svg>
