<svg width="56" height="55" viewBox="0 0 56 55" fill="none" xmlns="http://www.w3.org/2000/svg">
<g filter="url(#filter0_d_189_18)">
<path d="M20.0548 37.2562C20.0548 37.4437 19.8323 37.5938 19.5516 37.5938C19.2323 37.6219 19.0097 37.4719 19.0097 37.2562C19.0097 37.0687 19.2323 36.9187 19.5129 36.9187C19.8032 36.8906 20.0548 37.0406 20.0548 37.2562ZM17.0452 36.8344C16.9774 37.0219 17.171 37.2375 17.4613 37.2937C17.7129 37.3875 18.0032 37.2937 18.0613 37.1062C18.1194 36.9187 17.9355 36.7031 17.6452 36.6188C17.3935 36.5531 17.1129 36.6469 17.0452 36.8344ZM21.3226 36.675C21.0419 36.7406 20.8484 36.9188 20.8774 37.1344C20.9065 37.3219 21.1581 37.4438 21.4484 37.3781C21.729 37.3125 21.9226 37.1344 21.8935 36.9469C21.8645 36.7688 21.6032 36.6469 21.3226 36.675ZM27.6903 0.75C14.2677 0.75 4 10.6219 4 23.625C4 34.0219 10.7548 42.9188 20.4032 46.05C21.6419 46.2656 22.0774 45.525 22.0774 44.9156C22.0774 44.3344 22.0484 41.1281 22.0484 39.1594C22.0484 39.1594 15.2742 40.5656 13.8516 36.3656C13.8516 36.3656 12.7484 33.6375 11.1613 32.9344C11.1613 32.9344 8.94516 31.4625 11.3161 31.4906C11.3161 31.4906 13.7258 31.6781 15.0516 33.9094C17.171 37.5281 20.7226 36.4875 22.1065 35.8688C22.329 34.3688 22.9581 33.3281 23.6548 32.7094C18.2452 32.1281 12.7871 31.3687 12.7871 22.35C12.7871 19.7719 13.5226 18.4781 15.071 16.8281C14.8194 16.2188 13.9968 13.7062 15.3226 10.4625C17.3452 9.85312 22 12.9938 22 12.9938C23.9355 12.4688 26.0161 12.1969 28.0774 12.1969C30.1387 12.1969 32.2194 12.4688 34.1548 12.9938C34.1548 12.9938 38.8097 9.84375 40.8323 10.4625C42.1581 13.7156 41.3355 16.2188 41.0839 16.8281C42.6323 18.4875 43.5806 19.7812 43.5806 22.35C43.5806 31.3969 37.8806 32.1187 32.471 32.7094C33.3613 33.45 34.1161 34.8562 34.1161 37.0594C34.1161 40.2187 34.0871 44.1281 34.0871 44.8969C34.0871 45.5062 34.5323 46.2469 35.7613 46.0312C45.4387 42.9187 52 34.0219 52 23.625C52 10.6219 41.1129 0.75 27.6903 0.75ZM13.4065 33.0844C13.2806 33.1781 13.3097 33.3938 13.4742 33.5719C13.629 33.7219 13.8516 33.7875 13.9774 33.6656C14.1032 33.5719 14.0742 33.3562 13.9097 33.1781C13.7548 33.0281 13.5323 32.9625 13.4065 33.0844ZM12.3613 32.325C12.2935 32.4469 12.3903 32.5969 12.5839 32.6906C12.7387 32.7844 12.9323 32.7562 13 32.625C13.0677 32.5031 12.971 32.3531 12.7774 32.2594C12.5839 32.2031 12.429 32.2312 12.3613 32.325ZM15.4968 35.6625C15.3419 35.7844 15.4 36.0656 15.6226 36.2438C15.8452 36.4594 16.1258 36.4875 16.2516 36.3375C16.3774 36.2156 16.3194 35.9344 16.1258 35.7562C15.9129 35.5406 15.6226 35.5125 15.4968 35.6625ZM14.3935 34.2844C14.2387 34.3781 14.2387 34.6219 14.3935 34.8375C14.5484 35.0531 14.8097 35.1469 14.9355 35.0531C15.0903 34.9312 15.0903 34.6875 14.9355 34.4719C14.8 34.2563 14.5484 34.1625 14.3935 34.2844Z" fill="white"/>
</g>
<defs>
<filter id="filter0_d_189_18" x="0" y="0" width="56" height="56" filterUnits="userSpaceOnUse" color-interpolation-filters="sRGB">
<feFlood flood-opacity="0" result="BackgroundImageFix"/>
<feColorMatrix in="SourceAlpha" type="matrix" values="0 0 0 0 0 0 0 0 0 0 0 0 0 0 0 0 0 0 127 0" result="hardAlpha"/>
<feOffset dy="4"/>
<feGaussianBlur stdDeviation="2"/>
<feComposite in2="hardAlpha" operator="out"/>
<feColorMatrix type="matrix" values="0 0 0 0 0 0 0 0 0 0 0 0 0 0 0 0 0 0 0.25 0"/>
<feBlend mode="normal" in2="BackgroundImageFix" result="effect1_dropShadow_189_18"/>
<feBlend mode="normal" in="SourceGraphic" in2="effect1_dropShadow_189_18" result="shape"/>
</filter>
</defs>
</svg>
