<svg width="43" height="48" viewBox="0 0 43 48" fill="none" xmlns="http://www.w3.org/2000/svg">
<g clip-path="url(#clip0_189_22)">
<path d="M39.1359 3H3.00105C1.3453 3 0 4.35938 0 6.02813V41.9719C0 43.6406 1.3453 45 3.00105 45H39.1359C40.7916 45 42.1463 43.6406 42.1463 41.9719V6.02813C42.1463 4.35938 40.7916 3 39.1359 3ZM12.738 39H6.49129V18.9562H12.7474V39H12.738ZM9.61463 16.2188C7.6108 16.2188 5.99268 14.5969 5.99268 12.6094C5.99268 10.6219 7.6108 9 9.61463 9C11.6091 9 13.2366 10.6219 13.2366 12.6094C13.2366 14.6062 11.6185 16.2188 9.61463 16.2188V16.2188ZM36.1537 39H29.907V29.25C29.907 26.925 29.8599 23.9344 26.6613 23.9344C23.4063 23.9344 22.9077 26.4656 22.9077 29.0813V39H16.661V18.9562H22.6537V21.6937H22.7383C23.5756 20.1187 25.6171 18.4594 28.6557 18.4594C34.9777 18.4594 36.1537 22.6125 36.1537 28.0125V39V39Z" fill="white"/>
</g>
<defs>
<clipPath id="clip0_189_22">
<rect width="42.1463" height="48" fill="white"/>
</clipPath>
</defs>
</svg>
