<svg width="88" height="30" viewBox="0 0 88 30" fill="none" xmlns="http://www.w3.org/2000/svg">
<g filter="url(#filter0_i_82_8)">
<path d="M0.92 12V2.448L2.568 0.799999H7.736L9.384 2.448V12H7.128V8.704H3.176V12H0.92ZM2.048 10.864H2.04V7.608H8.296V10.864H8.288V2.92L7.288 1.928H3.048L2.048 2.92V10.864ZM3.176 6.448H7.128V3.552L6.64 3.064H3.664L3.176 3.552V6.448ZM2.04 7.616V2.92L3.048 1.92H7.288L8.296 2.92V7.616H2.04ZM12.5449 10.864H16.9769H12.5449V9.232L16.6329 6.208V4.48H12.3689H16.6329V6.208L12.5449 9.232V10.864ZM11.1769 12V8.808L15.2969 5.864V5.624H11.3289V3.36H17.9769V6.616L13.9129 9.48V9.736H17.9769V12H11.1769ZM21.3874 12L19.7394 10.352V3.36H22.0034V9.248L22.4914 9.736H24.8434L25.3314 9.248V3.36H27.5954V10.352L25.9474 12H21.3874ZM22.0274 10.864H25.3634L26.4754 9.664V4.48V9.664L25.3634 10.864H22.0274L20.8594 9.656V4.48V9.656L22.0274 10.864ZM29.4288 12V9.736H34.4688L34.9568 9.248V9.288L34.4848 8.808H30.9968L29.3488 7.16V5.008L30.9968 3.36H37.0528V5.624H32.0928L31.6048 6.112V6.064L32.0928 6.552H35.5648L37.2128 8.2V10.352L35.5648 12H29.4288ZM30.6608 10.84H35.0928L36.0848 9.848V8.592L35.0928 7.64H31.3968L30.4928 6.728V5.472L31.4768 4.488H35.8208H31.4768L30.4928 5.472V6.728L31.3968 7.64H35.0928L36.0848 8.592V9.848L35.0928 10.84H30.6608ZM40.6218 12L38.9738 10.352V8.072L40.6218 6.424H44.9738V6.112L44.4858 5.624H39.0858V3.36H45.5898L47.2378 5.008V10.352L45.5898 12H40.6218ZM41.2058 10.896L40.1818 9.888V8.4L41.0298 7.552H46.1258V9.808L45.0218 10.896H41.2058ZM41.2058 10.896H45.0218L46.1258 9.808V5.552L45.0858 4.528H40.0858H45.0858L46.1258 5.552V7.552H41.0298L40.1818 8.4V9.888L41.2058 10.896ZM41.7258 9.736H44.4858L44.9738 9.248V8.608H41.5658L41.2298 8.944V9.248L41.7258 9.736ZM2.128 28.864H2.12V19.928H4.448L7.28 28.864H9.584V19.928H9.592V28.864H7.28L4.448 19.928H2.128V28.864ZM1 30V18.8H5.344L8.112 27.704H8.456V18.8H10.72V30H6.376L3.592 21.072H3.264V30H1ZM14.2468 30L12.5988 28.352V26.072L14.2468 24.424H18.5988V24.112L18.1108 23.624H12.7108V21.36H19.2148L20.8628 23.008V28.352L19.2148 30H14.2468ZM14.8308 28.896L13.8068 27.888V26.4L14.6548 25.552H19.7508V27.808L18.6468 28.896H14.8308ZM14.8308 28.896H18.6468L19.7508 27.808V23.552L18.7108 22.528H13.7108H18.7108L19.7508 23.552V25.552H14.6548L13.8068 26.4V27.888L14.8308 28.896ZM15.3508 27.736H18.1108L18.5988 27.248V26.608H15.1908L14.8548 26.944V27.248L15.3508 27.736ZM22.75 30V18.8H25.014V24.576H26.646L27.598 23.624V21.36H29.862V24.576L28.734 25.696L29.862 26.84V30H27.598V27.784L26.646 26.84H25.014V30H22.75ZM23.894 28.864H23.886V25.688H27.214L28.71 27.248V28.864H28.702V27.248L27.214 25.688L28.71 24.192V22.48H28.718V24.192L27.214 25.688H23.886V19.928H23.894V28.864ZM33.3874 30L31.7394 28.352V26.072L33.3874 24.424H37.7394V24.112L37.2514 23.624H31.8514V21.36H38.3554L40.0034 23.008V28.352L38.3554 30H33.3874ZM33.9714 28.896L32.9474 27.888V26.4L33.7954 25.552H38.8914V27.808L37.7874 28.896H33.9714ZM33.9714 28.896H37.7874L38.8914 27.808V23.552L37.8514 22.528H32.8514H37.8514L38.8914 23.552V25.552H33.7954L32.9474 26.4V27.888L33.9714 28.896ZM34.4914 27.736H37.2514L37.7394 27.248V26.608H34.3314L33.9954 26.944V27.248L34.4914 27.736ZM41.8906 30V18.008H44.1546V21.512L44.3066 21.36H48.0426L49.6906 23.008V30H47.4266V24.112L46.9386 23.616H44.7946L44.1546 24.264V30H41.8906ZM43.0666 28.864H43.0586V23.84L44.4426 22.472H47.5866L48.5626 23.432V28.864H48.5546V23.432L47.5866 22.472H44.4426L43.0586 23.84V19.232H43.0666V28.864ZM53.1061 30L51.4581 28.352V26.072L53.1061 24.424H57.4581V24.112L56.9701 23.624H51.5701V21.36H58.0741L59.7221 23.008V28.352L58.0741 30H53.1061ZM53.6901 28.896L52.6661 27.888V26.4L53.5141 25.552H58.6101V27.808L57.5061 28.896H53.6901ZM53.6901 28.896H57.5061L58.6101 27.808V23.552L57.5701 22.528H52.5701H57.5701L58.6101 23.552V25.552H53.5141L52.6661 26.4V27.888L53.6901 28.896ZM54.2101 27.736H56.9701L57.4581 27.248V26.608H54.0501L53.7141 26.944V27.248L54.2101 27.736ZM61.5694 30V27.736H66.6094L67.0974 27.248V27.288L66.6254 26.808H63.1374L61.4894 25.16V23.008L63.1374 21.36H69.1934V23.624H64.2334L63.7454 24.112V24.064L64.2334 24.552H67.7054L69.3534 26.2V28.352L67.7054 30H61.5694ZM62.8014 28.84H67.2334L68.2254 27.848V26.592L67.2334 25.64H63.5374L62.6334 24.728V23.472L63.6174 22.488H67.9614H63.6174L62.6334 23.472V24.728L63.5374 25.64H67.2334L68.2254 26.592V27.848L67.2334 28.84H62.8014ZM71.2344 30V18.008H73.4984V21.512L73.6504 21.36H77.3864L79.0344 23.008V30H76.7704V24.112L76.2824 23.616H74.1384L73.4984 24.264V30H71.2344ZM72.4104 28.864H72.4024V23.84L73.7864 22.472H76.9304L77.9064 23.432V28.864H77.8984V23.432L76.9304 22.472H73.7864L72.4024 23.84V19.232H72.4104V28.864ZM82.6179 20.104V18H85.1939V20.104H82.6179ZM83.9139 19.184H83.9059V18.8H83.9139V19.184ZM80.8019 30V27.736H82.9379V23.624H80.8019V21.36H85.1939V27.736H87.3299V30H80.8019ZM81.8099 28.864H86.3299H84.0259V22.488H81.8099H84.0259V28.864H81.8099Z" fill="white"/>
</g>
<defs>
<filter id="filter0_i_82_8" x="0.919922" y="0.799988" width="86.4102" height="29.2" filterUnits="userSpaceOnUse" color-interpolation-filters="sRGB">
<feFlood flood-opacity="0" result="BackgroundImageFix"/>
<feBlend mode="normal" in="SourceGraphic" in2="BackgroundImageFix" result="shape"/>
<feColorMatrix in="SourceAlpha" type="matrix" values="0 0 0 0 0 0 0 0 0 0 0 0 0 0 0 0 0 0 127 0" result="hardAlpha"/>
<feOffset/>
<feGaussianBlur stdDeviation="0.5"/>
<feComposite in2="hardAlpha" operator="arithmetic" k2="-1" k3="1"/>
<feColorMatrix type="matrix" values="0 0 0 0 0.245833 0 0 0 0 0.245833 0 0 0 0 0.245833 0 0 0 1 0"/>
<feBlend mode="normal" in2="shape" result="effect1_innerShadow_82_8"/>
</filter>
</defs>
</svg>
