<svg width="84" height="95" viewBox="0 0 84 95" fill="none" xmlns="http://www.w3.org/2000/svg">
<g clip-path="url(#clip0_229_25)">
<path d="M81.5573 43.7983L45.2736 7.50536C44.2691 6.50182 42.9074 5.93811 41.4875 5.93811C40.0676 5.93811 38.7059 6.50182 37.7014 7.50536L30.1571 15.0441L39.7165 24.6035C44.7374 22.9076 49.4911 27.7151 47.7673 32.7082L56.9816 41.9224C63.3329 39.733 68.3333 47.6744 63.5629 52.4411C58.6478 57.3562 50.5357 51.9086 53.1723 45.5128L44.5722 36.9238V59.5327C49.2665 61.8595 48.7025 67.2978 46.257 69.7378C45.0622 70.9319 43.4421 71.6027 41.7528 71.6027C40.0636 71.6027 38.4435 70.9319 37.2487 69.7378C33.9886 66.4722 35.1947 61.0338 39.3361 59.3472V36.5249C35.4767 34.9459 34.7716 30.8212 35.8775 28.1753L26.4536 18.7402L1.56802 43.6295C0.564022 44.6337 0 45.9956 0 47.4156C0 48.8356 0.564022 50.1974 1.56802 51.2016L37.8628 87.4946C38.867 88.498 40.2284 89.0617 41.648 89.0617C43.0676 89.0617 44.429 88.498 45.4332 87.4946L81.5573 51.3705C82.5613 50.3663 83.1253 49.0044 83.1253 47.5844C83.1253 46.1644 82.5613 44.8025 81.5573 43.7983V43.7983Z" fill="white"/>
</g>
<defs>
<clipPath id="clip0_229_25">
<rect width="83.125" height="95" fill="white"/>
</clipPath>
</defs>
</svg>
