<svg width="447" height="118" viewBox="0 0 447 118" fill="none" xmlns="http://www.w3.org/2000/svg">
<path d="M37.082 12.8871C32.3367 7.29422 28.2482 1.57431 27.418 0.400546C27.4008 0.375749 27.3779 0.355486 27.3511 0.341492C27.3243 0.327498 27.2946 0.320188 27.2644 0.32019C27.2342 0.320193 27.2044 0.327507 27.1777 0.341505C27.1509 0.355504 27.1279 0.37577 27.1107 0.400569C26.2807 1.57436 22.1931 7.29424 17.448 12.8871C-23.2227 64.6371 23.8673 99.552 23.8673 99.552L24.249 99.817C24.606 105.219 25.493 112.982 25.493 112.982H29.0369C29.0369 112.982 29.9201 105.252 30.2786 99.852L30.6627 99.552C30.6627 99.552 77.7522 64.6371 37.082 12.8871ZM27.2651 98.7932H27.2647C27.2647 98.7932 25.1536 96.9947 24.5839 96.0936L24.5787 95.9966L27.1322 39.6558C27.1338 39.6217 27.1485 39.5896 27.1732 39.566C27.1979 39.5425 27.2308 39.5294 27.2649 39.5294C27.2991 39.5294 27.3319 39.5425 27.3566 39.566C27.3813 39.5896 27.396 39.6217 27.3976 39.6558L29.951 95.9966L29.9461 96.0933C29.3767 96.9943 27.2651 98.7932 27.2651 98.7932Z" fill="white"/>
<path d="M108.78 84.0186L89.2275 36.4443L89.1718 36.3082H73.9247V39.4941L76.3727 39.4979C76.7397 39.4986 77.1029 39.5718 77.4414 39.7133C77.7799 39.8549 78.0869 40.062 78.3449 40.3227C78.6028 40.5834 78.8066 40.8925 78.9443 41.2322C79.0821 41.5719 79.1511 41.9355 79.1474 42.302L78.6966 90.2229C78.6927 90.9453 78.4058 91.6373 77.8973 92.151C77.3888 92.6646 76.6991 92.9589 75.976 92.9709L73.4712 93.0009V96.1679H88.309V93.0026L86.7821 92.9714C86.0561 92.9527 85.3658 92.6525 84.8576 92.1344C84.3493 91.6163 84.063 90.9209 84.0592 90.1955V45.0509L105.388 96.1345C105.538 96.4925 105.79 96.7983 106.113 97.0133C106.437 97.2284 106.816 97.3431 107.205 97.3431C107.593 97.343 107.973 97.2282 108.296 97.0131C108.619 96.7979 108.871 96.4921 109.021 96.1341L129.863 46.1781L130.174 90.1852C130.177 90.9186 129.891 91.6238 129.377 92.1475C128.863 92.6712 128.163 92.9709 127.428 92.9816L125.861 93.0009V96.1679H143.226V93L140.848 92.9816C140.12 92.9694 139.425 92.6732 138.912 92.1562C138.399 91.6392 138.109 90.9425 138.104 90.2148L137.953 42.302C137.954 41.5724 138.24 40.8719 138.752 40.3511C139.264 39.8304 139.959 39.5308 140.69 39.5167L143.227 39.4923V36.3082H128.398L108.78 84.0186Z" fill="white"/>
<path d="M234.9 90.8933C234.651 90.6409 234.456 90.3397 234.328 90.0085C234.2 89.6773 234.142 89.3234 234.157 88.9688V65.4868C234.157 61.0312 232.833 57.5081 230.222 55.0143C227.613 52.5239 224.03 51.261 219.574 51.261C213.282 51.261 208.34 53.801 204.884 58.8108C204.853 58.8561 204.809 58.8914 204.759 58.9127C204.708 58.934 204.653 58.9403 204.599 58.9308C204.545 58.9214 204.494 58.8966 204.454 58.8595C204.414 58.8224 204.385 58.7744 204.371 58.7214L202.746 52.4495H200.03L193.038 56.4467L193.038 58.6461H194.842C195.575 58.6081 196.296 58.8455 196.863 59.3116C197.122 59.5731 197.321 59.8871 197.448 60.2325C197.575 60.5779 197.626 60.9465 197.597 61.3132V88.9688C197.615 89.3236 197.558 89.6782 197.43 90.0097C197.302 90.3412 197.105 90.6422 196.854 90.8934C196.602 91.1447 196.301 91.3405 195.969 91.4684C195.637 91.5963 195.282 91.6533 194.927 91.6359H193.178V94.8221H209.255V91.6359H207.506C207.15 91.6534 206.795 91.5963 206.463 91.4685C206.132 91.3406 205.83 91.1448 205.579 90.8935C205.327 90.6423 205.131 90.3413 205.003 90.0098C204.875 89.6783 204.818 89.3237 204.835 88.9688V70.6648C204.846 68.2795 205.361 65.9234 206.346 63.7505C207.321 61.5357 208.865 59.6183 210.822 58.1933C212.876 56.7281 215.351 55.9683 217.875 56.0282C220.959 56.0282 223.259 56.9984 224.711 58.9123C226.176 60.8467 226.919 63.3444 226.919 66.335V88.9688C226.936 89.3236 226.879 89.6782 226.751 90.0097C226.624 90.3412 226.427 90.6423 226.176 90.8935C225.924 91.1448 225.623 91.3406 225.291 91.4685C224.959 91.5963 224.604 91.6534 224.249 91.6359H222.499V94.8221H238.577V91.6359H236.828C236.472 91.6513 236.118 91.5933 235.786 91.4656C235.455 91.3378 235.153 91.143 234.9 90.8933Z" fill="white"/>
<path d="M369.746 39.8991C365.155 37.4912 360.039 36.2575 354.854 36.3084H333.774V39.4947H335.816C336.64 39.5545 337.415 39.9083 337.999 40.4915C338.583 41.0748 338.937 41.8484 338.997 42.6711V89.8049C338.987 90.2168 338.893 90.6223 338.721 90.9969C338.55 91.3716 338.304 91.7076 337.999 91.9846C337.723 92.2912 337.387 92.538 337.011 92.7095C336.636 92.8811 336.229 92.9737 335.816 92.9818H333.774V96.168H354.854C360.039 96.2189 365.155 94.9852 369.746 92.5773C374.23 90.1997 377.956 86.6122 380.498 82.2234C383.141 77.7404 384.481 72.362 384.481 66.2378C384.481 60.1152 383.141 54.7373 380.498 50.253C377.955 45.8645 374.23 42.2772 369.746 39.8991ZM376.053 66.2378C376.053 71.8335 375.046 76.5973 373.061 80.3977C371.079 84.1891 368.434 87.0436 365.2 88.8827C361.943 90.7274 358.258 91.6837 354.515 91.6555H350.265C349.852 91.6476 349.445 91.555 349.07 91.3835C348.694 91.2119 348.358 90.9651 348.083 90.6583C347.777 90.3814 347.531 90.0454 347.36 89.6707C347.188 89.2961 347.095 88.8905 347.085 88.4786V43.9974C347.093 43.5851 347.185 43.179 347.357 42.804C347.529 42.4291 347.776 42.0934 348.083 41.8177C348.36 41.5131 348.697 41.2677 349.072 41.0964C349.447 40.9251 349.853 40.8314 350.265 40.8209H354.515C358.258 40.7927 361.943 41.749 365.2 43.5938C368.433 45.4315 371.078 48.2861 373.061 52.0783C375.046 55.8804 376.053 60.6442 376.053 66.2378Z" fill="white"/>
<path d="M429.518 69.4058C427.604 67.1877 423.872 65.2977 419.454 64.2916C425.529 61.2795 428.608 56.9959 428.608 51.5525C428.653 48.7268 427.823 45.9562 426.233 43.6188C424.548 41.2426 422.237 39.3798 419.555 38.2379C416.413 36.8992 413.022 36.2416 409.606 36.3086H385.961V39.4949H387.833C388.657 39.5545 389.431 39.9084 390.015 40.4916C390.599 41.0749 390.954 41.8486 391.013 42.6713V89.8051C391.003 90.217 390.909 90.6224 390.738 90.997C390.566 91.3717 390.321 91.7077 390.015 91.9848C389.739 92.2915 389.403 92.5382 389.028 92.7097C388.653 92.8813 388.246 92.9739 387.833 92.982H385.791V96.1682H411.461C415.165 96.2082 418.842 95.5401 422.294 94.2C425.39 93.0267 428.1 91.0185 430.122 88.3988C432.04 85.8532 433.013 82.7385 433.013 79.1414C433.088 75.5771 431.843 72.1105 429.518 69.4058ZM400.1 90.6585C399.794 90.3816 399.548 90.0456 399.377 89.6709C399.205 89.2963 399.111 88.8907 399.101 88.4789V67.3062H411.291C415.573 67.3062 418.897 68.4138 421.168 70.5982C423.435 72.7808 424.585 75.6555 424.585 79.1414C424.584 81.2513 424.067 83.3291 423.08 85.1946C422.046 87.1419 420.484 88.7593 418.572 89.8616C416.578 91.0518 414.128 91.6557 411.291 91.6557H402.282C401.869 91.6478 401.462 91.5552 401.087 91.3837C400.712 91.2121 400.375 90.9653 400.1 90.6585V90.6585ZM399.101 62.7937V43.9975C399.109 43.5853 399.202 43.1791 399.374 42.8042C399.545 42.4292 399.792 42.0935 400.1 41.8179C400.377 41.5132 400.714 41.2679 401.089 41.0966C401.464 40.9253 401.87 40.8316 402.282 40.8211H408.076C412.241 40.8211 415.333 41.8547 417.266 43.8936C419.2 45.9363 420.181 48.5991 420.181 51.8076C420.181 55.1304 419.271 57.8228 417.475 59.8098C415.685 61.7896 412.952 62.7937 409.351 62.7937H399.101Z" fill="white"/>
<path d="M177.985 54.0467C174.522 52.2172 170.664 51.2609 166.746 51.261C162.828 51.2611 158.969 52.2175 155.506 54.0471C152.153 55.8885 149.373 58.6194 147.475 61.9385C145.532 65.5316 144.514 69.5515 144.514 73.6356C144.514 77.7197 145.532 81.7396 147.475 85.3327C149.373 88.6526 152.152 91.3839 155.506 93.225C158.97 95.0544 162.828 96.0107 166.746 96.0106C170.664 96.0106 174.522 95.0541 177.985 93.2245C181.339 91.3837 184.119 88.6525 186.016 85.3327C187.96 81.7396 188.978 77.7197 188.978 73.6356C188.978 69.5514 187.96 65.5315 186.016 61.9385C184.118 58.6194 181.339 55.8884 177.985 54.0467ZM181.23 73.6358C181.23 79.0471 179.903 83.3983 177.286 86.5687C174.678 89.7267 171.132 91.3282 166.746 91.3282C162.359 91.3282 158.813 89.7267 156.206 86.5687C153.589 83.4 152.262 79.0488 152.262 73.6358C152.262 68.2228 153.589 63.8716 156.206 60.7025C158.812 57.5445 162.358 55.9434 166.746 55.9434C171.132 55.9434 174.678 57.5445 177.286 60.7025C179.903 63.8733 181.23 68.2245 181.23 73.6358H181.23Z" fill="white"/>
<path d="M320.245 54.0467C316.781 52.2172 312.923 51.2609 309.005 51.261C305.087 51.2611 301.229 52.2175 297.765 54.0471C294.412 55.8885 291.633 58.6194 289.735 61.9385C287.791 65.5316 286.773 69.5515 286.773 73.6356C286.773 77.7197 287.791 81.7396 289.735 85.3327C291.632 88.6526 294.411 91.3839 297.765 93.225C301.229 95.0544 305.087 96.0107 309.005 96.0106C312.923 96.0106 316.781 95.0541 320.245 93.2245C323.599 91.3837 326.378 88.6525 328.275 85.3327C330.219 81.7396 331.237 77.7197 331.237 73.6356C331.237 69.5515 330.219 65.5316 328.275 61.9385C326.377 58.6194 323.598 55.8884 320.245 54.0467ZM323.489 73.6358C323.489 79.0471 322.162 83.3983 319.545 86.5687C316.937 89.7267 313.391 91.3282 309.005 91.3282C304.618 91.3282 301.072 89.7267 298.465 86.5687C295.848 83.4 294.521 79.0488 294.521 73.6358C294.521 68.2232 295.848 63.8716 298.465 60.7025C301.072 57.5445 304.618 55.9434 309.005 55.9434C313.391 55.9434 316.937 57.5445 319.545 60.7025C322.162 63.8733 323.489 68.2245 323.489 73.6358H323.489Z" fill="white"/>
<path d="M261.685 51.2611C258.354 51.2232 255.062 51.988 252.089 53.4908C249.32 54.8745 246.973 56.9725 245.29 59.5672C243.669 62.0729 242.813 64.9959 242.826 67.9794C242.792 70.5785 243.442 73.1411 244.71 75.4107C245.946 77.5707 247.657 79.4222 249.713 80.8258L243.46 89.3164C243.08 89.8314 242.852 90.4413 242.798 91.0785C242.745 91.7156 242.87 92.3549 243.159 92.9255C243.448 93.496 243.89 93.9753 244.435 94.3102C244.98 94.645 245.608 94.8223 246.248 94.8223H248.044C246.373 95.9121 244.964 97.3578 243.918 99.0558C242.815 100.825 242.223 102.864 242.208 104.949C242.208 108.711 243.873 111.813 247.158 114.17C250.42 116.51 254.981 117.697 260.713 117.697C264.561 117.724 268.384 117.078 272.008 115.786C275.27 114.668 278.191 112.733 280.49 110.166C282.626 107.722 283.779 104.574 283.724 101.331C283.724 97.7449 282.407 95.1788 279.32 92.7505C276.679 90.6757 272.567 89.5788 267.428 89.5788H249.873C249.853 89.5788 249.833 89.5733 249.815 89.5629C249.798 89.5525 249.784 89.5376 249.774 89.5197C249.765 89.5019 249.76 89.4818 249.761 89.4616C249.762 89.4414 249.769 89.4218 249.78 89.405L254.336 83.2512C255.416 83.7514 256.548 84.1314 257.711 84.3845C258.876 84.6044 260.059 84.7093 261.244 84.6977C264.676 84.7518 268.071 83.9876 271.149 82.4684C273.942 81.0878 276.318 78.9912 278.035 76.3929C279.682 73.8964 280.555 70.9696 280.544 67.9794C280.544 64.7281 278.983 58.808 274.671 55.7891C274.683 55.7587 274.705 55.7604 274.712 55.7625L284.166 56.8188V52.4962H269.054C266.685 51.6749 264.194 51.2574 261.685 51.2611ZM266.97 78.6826H266.97C265.348 79.5615 263.531 80.0227 261.685 80.0243C258.803 80.0448 256.03 78.9242 253.973 76.9078C251.792 74.845 250.686 71.8406 250.686 67.9794C250.686 64.1183 251.792 61.1139 253.973 59.0507C256.031 57.0347 258.803 55.9144 261.685 55.9346C263.531 55.9368 265.347 56.3978 266.97 57.2758C268.684 58.2141 270.107 59.6055 271.082 61.2975C272.146 63.0791 272.685 65.3273 272.685 67.9794C272.685 70.6328 272.146 72.881 271.082 74.6609C270.108 76.3538 268.685 77.7454 266.97 78.6826ZM255.052 94.8223H266.948C270.252 94.8223 272.354 95.4621 273.763 96.8967C274.463 97.6252 275.01 98.4868 275.371 99.4303C275.732 100.374 275.9 101.38 275.864 102.39C275.899 103.9 275.572 105.397 274.91 106.756C274.249 108.115 273.272 109.296 272.062 110.202C269.522 112.191 266.09 113.199 261.862 113.199C258.157 113.199 255.123 112.382 252.845 110.769C250.592 109.174 249.449 106.8 249.449 103.713C249.431 101.825 249.988 99.9752 251.045 98.4095C252.037 96.879 253.42 95.6407 255.052 94.8223Z" fill="white"/>
<path d="M437.619 91.6019C436.763 91.1224 436.055 90.4199 435.568 89.5695C435.083 88.7066 434.829 87.7337 434.829 86.7441C434.829 85.7546 435.083 84.7817 435.568 83.9188C436.055 83.0684 436.763 82.366 437.619 81.8863C438.522 81.3962 439.534 81.1395 440.563 81.1395C441.591 81.1395 442.603 81.3962 443.507 81.8863C444.362 82.3659 445.071 83.0683 445.558 83.9188C446.043 84.7816 446.298 85.7546 446.298 86.7441C446.298 87.7337 446.043 88.7067 445.558 89.5695C445.071 90.42 444.362 91.1225 443.507 91.6019C442.603 92.0919 441.591 92.3485 440.563 92.3485C439.534 92.3485 438.522 92.0919 437.619 91.6019ZM443.006 90.9553C443.722 90.5481 444.312 89.9513 444.71 89.2308C445.115 88.4643 445.327 87.6108 445.327 86.7441C445.327 85.8775 445.115 85.024 444.71 84.2575C444.312 83.537 443.722 82.9402 443.006 82.533C442.257 82.1239 441.417 81.9094 440.563 81.9094C439.709 81.9094 438.869 82.1239 438.12 82.533C437.404 82.9401 436.814 83.5369 436.416 84.2575C436.011 85.024 435.8 85.8775 435.8 86.7441C435.8 87.6108 436.011 88.4643 436.416 89.2308C436.814 89.9514 437.404 90.5482 438.12 90.9553C438.869 91.3644 439.709 91.5788 440.563 91.5788C441.417 91.5788 442.257 91.3644 443.006 90.9553ZM438.189 89.4231V89.0382L438.266 88.9768H438.528C438.612 88.972 438.692 88.9364 438.752 88.8768C438.811 88.8171 438.847 88.7376 438.852 88.6534V84.5885C438.847 84.5044 438.811 84.4249 438.752 84.3652C438.692 84.3056 438.612 84.27 438.528 84.2652H438.266L438.189 84.2036V83.8186L438.266 83.757H440.548C441.095 83.7279 441.637 83.8794 442.089 84.1882C442.278 84.3316 442.428 84.5188 442.527 84.7335C442.627 84.9481 442.672 85.1837 442.66 85.4199C442.662 85.6185 442.624 85.8156 442.548 85.9994C442.473 86.1831 442.361 86.35 442.22 86.49C441.922 86.7957 441.527 86.9888 441.103 87.0365L441.627 87.1906L442.644 88.7919C442.673 88.8453 442.715 88.8905 442.766 88.9229C442.817 88.9553 442.876 88.9739 442.937 88.9768H443.199L443.261 89.0382V89.4231L443.199 89.4848H441.858L441.765 89.4231L440.347 87.0674H440.008V88.6534C440.013 88.7375 440.049 88.8169 440.108 88.8765C440.168 88.9361 440.248 88.9718 440.332 88.9768H440.594L440.671 89.0382V89.4231L440.594 89.4848H438.266L438.189 89.4231ZM440.393 86.5594C440.545 86.5691 440.697 86.5482 440.84 86.4979C440.983 86.4477 441.114 86.3691 441.226 86.2668C441.329 86.1525 441.408 86.0185 441.458 85.873C441.509 85.7275 441.529 85.5734 441.519 85.4199C441.534 85.1155 441.435 84.8164 441.241 84.5808C441.149 84.4766 441.035 84.3942 440.907 84.3396C440.779 84.285 440.64 84.2596 440.501 84.2652H440.332C440.248 84.2702 440.168 84.3058 440.108 84.3654C440.049 84.425 440.013 84.5044 440.008 84.5885V86.5594H440.393Z" fill="white"/>
</svg>
