<svg width="119" height="95" viewBox="0 0 119 95" fill="none" xmlns="http://www.w3.org/2000/svg">
<g clip-path="url(#clip0_229_33)">
<path d="M55.8735 70.3074C55.818 70.4188 55.7624 70.5078 55.8735 70.3074V70.3074ZM101.99 54.1648C98.267 54.1636 94.5935 55.0207 91.2536 56.6697C90.1615 54.4617 89.0323 52.532 88.8472 51.0848C88.6251 49.3963 88.3844 48.3943 88.6436 46.3904C88.9027 44.3865 90.0689 41.5477 90.0504 41.3436C90.0319 41.1395 89.7913 40.1189 87.4034 40.1004C85.0154 40.0818 82.9607 40.5643 82.7219 41.1951C82.3002 42.348 81.9721 43.5332 81.7408 44.7391C81.3151 46.91 76.9668 54.6658 74.5049 58.7107C73.6904 57.1336 73.0055 55.742 72.8574 54.6287C72.6353 52.9402 72.3946 51.9383 72.6538 49.9344C72.9129 47.9305 74.0791 45.0916 74.0606 44.8875C74.0421 44.6834 73.8014 43.6629 71.4154 43.6443C69.0293 43.6258 66.9727 44.1082 66.7321 44.7391C66.4914 45.3699 66.2323 46.8543 65.751 48.283C65.2697 49.7117 59.4776 62.6258 57.9616 65.9842C57.1841 67.6912 56.5177 69.0643 56.0364 69.992C55.9624 70.1404 55.9068 70.2332 55.8698 70.3074C55.9253 70.2147 55.9624 70.1219 55.9624 70.159C55.5551 70.9568 55.3145 71.4022 55.3145 71.4022V71.4207C54.9998 72.0145 54.6481 72.5525 54.4815 72.5525C54.3704 72.5525 54.1298 70.9939 54.537 68.8602C55.407 64.3699 57.4618 57.3934 57.4433 57.1521C57.4247 57.0223 57.832 55.8162 56.0919 55.1668C54.4074 54.5545 53.7966 55.575 53.6485 55.575C53.5004 55.575 53.3893 55.9461 53.3893 55.9461C53.3893 55.9461 55.2589 48.0789 49.8 48.0789C46.394 48.0789 41.6552 51.827 39.3265 55.2225C37.8641 56.0203 34.6987 57.7459 31.3668 59.5828C30.0895 60.2879 28.7752 61.0115 27.535 61.698C27.4424 61.6053 27.3684 61.5125 27.2758 61.4197C20.6507 54.3318 8.41864 49.3221 8.93695 39.8035C9.12206 36.3338 10.3253 27.2234 32.4589 16.1648C50.5997 7.11016 65.1031 9.59649 67.6003 15.1258C71.1914 23.0115 59.846 37.6883 41.0073 39.8035C33.8269 40.6014 30.0525 37.8182 29.1084 36.7791C28.1273 35.6844 27.9792 35.6287 27.609 35.8328C26.9982 36.1668 27.3869 37.1316 27.609 37.7068C28.1644 39.1727 30.4782 41.7703 34.4192 43.0691C37.8808 44.201 46.2996 44.8318 56.4788 40.8797C67.9149 36.4637 76.8169 24.1619 74.2068 13.8641C71.5487 3.39923 54.2371 -0.0333921 37.8678 5.79278C28.1144 9.26251 17.5668 14.7176 9.97912 21.824C0.966105 30.285 -0.475905 37.6512 0.116448 40.7313C2.22485 51.66 17.2521 58.785 23.2663 64.0545C22.9702 64.2215 22.6925 64.3699 22.4333 64.5184C19.4179 66.0213 7.96142 72.033 5.09406 78.3787C1.85463 85.5779 5.63088 90.7361 8.10951 91.4412C15.8453 93.5936 23.7661 89.7156 28.0218 83.3514C32.2775 76.9871 31.761 68.6746 29.7989 64.8895C29.7804 64.8338 29.7433 64.7967 29.7248 64.741C30.5023 64.2772 31.2983 63.8133 32.0942 63.3494C33.6288 62.4402 35.1282 61.6053 36.4425 60.8816C35.702 62.8855 35.1652 65.2977 34.8876 68.7859C34.5544 72.868 36.2389 78.1561 38.4232 80.2342C39.3857 81.1434 40.5501 81.1619 41.272 81.1619C43.8265 81.1619 44.9742 79.0467 46.2496 76.5232C47.8231 73.4432 49.2114 69.8621 49.2114 69.8621C49.2114 69.8621 47.4714 79.5477 52.2287 79.5477C53.9669 79.5477 55.7069 77.3025 56.4862 76.1522V76.1707C56.4862 76.1707 56.5233 76.0965 56.6158 75.948C56.8009 75.6697 56.8935 75.5027 56.8935 75.5027V75.4471C57.5969 74.241 59.1333 71.4764 61.4453 66.9119C64.4441 61.0115 67.3115 53.6453 67.3115 53.6453C67.5886 55.2646 67.9719 56.8638 68.4592 58.4324C68.9775 60.1951 70.0696 62.1248 70.9396 63.9988C70.2362 64.9637 69.8105 65.5203 69.8105 65.5203C69.8118 65.5346 69.8184 65.5478 69.829 65.5574C69.2737 66.2996 68.6443 67.0975 67.9964 67.8768C65.6288 70.6971 62.8133 73.9256 62.4431 74.8533C61.9988 75.948 62.1099 76.7645 62.9614 77.3953C63.5908 77.8777 64.7014 77.952 65.8658 77.8592C67.9945 77.7107 69.4939 77.1912 70.2159 76.8572C71.5468 76.3789 72.8047 75.7169 73.9532 74.8904C76.2671 73.1834 77.674 70.7342 77.5444 67.5057C77.4703 65.7244 76.8965 63.9432 76.1931 62.2732C76.3967 61.9764 76.6188 61.6609 76.8224 61.3455C80.4858 55.9832 83.318 50.0977 83.318 50.0977C83.595 51.7169 83.9784 53.3161 84.4656 54.8848C84.9099 56.3877 85.7781 58.0391 86.5741 59.6533C83.1329 62.4551 81.0041 65.7022 80.2636 67.8359C78.8938 71.7881 79.9675 73.5693 81.9852 73.9775C82.8922 74.1631 84.188 73.7363 85.1506 73.3281C86.5801 72.8508 87.928 72.1562 89.1471 71.2686C91.461 69.5615 93.699 67.168 93.5509 63.9209C93.4953 62.4551 93.0881 60.9893 92.5513 59.5791C95.4575 58.3545 99.2319 57.6865 104.045 58.2432C114.352 59.4492 116.369 65.9063 115.981 68.5967C115.592 71.2871 113.426 72.79 112.704 73.2354C111.982 73.6807 111.76 73.8477 111.816 74.1816C111.908 74.6641 112.241 74.6455 112.852 74.5342C113.704 74.3857 118.256 72.3447 118.459 67.3535C118.755 61.0449 112.704 54.1055 101.984 54.1611L101.99 54.1648ZM22.5444 81.0135C19.1402 84.743 14.3644 86.1531 12.3115 84.9656C10.1087 83.6816 10.9787 78.1932 15.1789 74.2188C17.7334 71.8066 21.0265 69.5801 23.2108 68.207C23.7106 67.9102 24.4325 67.4648 25.3211 66.9268C25.4692 66.834 25.5432 66.7969 25.5432 66.7969C25.7098 66.6855 25.8949 66.5928 26.08 66.4814C27.6146 72.1221 26.1356 77.0947 22.5444 81.0098V81.0135ZM47.4158 64.0545C46.2311 66.9676 43.734 74.3895 42.2161 73.9998C40.9203 73.6658 40.1243 68.0066 41.9569 62.4402C42.8825 59.6385 44.8446 56.2986 46.0108 54.9998C47.8786 52.9031 49.9333 52.2352 50.4146 53.0701C51.0625 54.1648 48.1563 62.2361 47.4158 64.0545ZM67.9631 73.8885C67.4633 74.1482 67.0005 74.3152 66.7784 74.1854C66.6118 74.0926 66.982 73.74 66.982 73.74C66.982 73.74 69.555 70.9754 70.5731 69.7137C71.1655 68.9715 71.8504 68.0994 72.589 67.1346C72.589 67.2273 72.6075 67.3201 72.6075 67.4314C72.5834 70.7527 69.4014 72.9979 67.9575 73.8885H67.9631ZM83.8048 70.2703C83.4346 70.0105 83.4901 69.1385 84.7304 66.4295C85.2116 65.3719 86.3205 63.5906 88.2475 61.8836C88.4656 62.5298 88.5842 63.2055 88.5992 63.8875C88.5807 68.0623 85.6004 69.6209 83.8067 70.2703H83.8048Z" fill="white"/>
</g>
<defs>
<clipPath id="clip0_229_33">
<rect width="118.471" height="95" fill="white"/>
</clipPath>
</defs>
</svg>
